<svg width="594" height="594" viewBox="0 0 594 594" fill="none" xmlns="http://www.w3.org/2000/svg">
<path d="M124.448 22.4247C236.802 56.5095 300.147 172.347 297.185 289.72L297.002 296.999L275.47 296.455C165.525 293.681 59.582 233.211 23.8408 129.2C-12.1499 24.4633 13.4075 -11.2619 124.448 22.4247Z" fill="white"/>
<path d="M571.575 124.448C537.49 236.801 421.652 300.146 304.28 297.184L297.001 297.001L297.544 275.469C300.319 165.524 360.789 59.5812 464.799 23.84C569.536 -12.1507 605.262 13.4067 571.575 124.448Z" fill="white"/>
<path d="M469.552 571.574C357.198 537.489 293.853 421.652 296.815 304.279L296.999 297L318.53 297.544C428.475 300.318 534.418 360.788 570.159 464.799C606.15 569.536 580.593 605.261 469.552 571.574Z" fill="white"/>
<path d="M22.4252 469.551C56.5101 357.198 172.348 293.853 289.72 296.815L296.999 296.998L296.456 318.53C293.682 428.475 233.211 534.418 129.201 570.159C24.4638 606.15 -11.2614 580.592 22.4252 469.551Z" fill="white"/>
</svg>
