<svg xmlns="http://www.w3.org/2000/svg" width="177" height="156" fill="none" viewBox="0 0 177 156"><g clip-path="url(#a)"><path fill="#221e1e" fill-rule="evenodd" d="M102.295.337c-.141.31-.127.408.042.577.14.14.506.211 1.152.211h.955a169 169 0 0 1-.168 4.262c-.071 1.154-.071 2.18-.014 2.293.07.113.266.197.463.197s.379-.098.422-.21c.042-.113.14-1.59.224-3.278.085-1.674.169-3.067.169-3.08.014-.015.506-.057 1.082-.1.575-.028 1.067-.07 1.081-.07.028-.014.042-.126.042-.267.014-.127-.154-.31-.379-.408-.211-.084-1.278-.197-2.36-.24-1.082-.041-2.093-.126-2.248-.168-.21-.056-.337.014-.463.281M99.162 149.29c-.182.183-.239.802-.323 3.081-.084 2.264-.07 2.94.084 3.249.183.38.211.394 1.335.38.969 0 1.32-.07 2.037-.394.744-.338.955-.52 1.362-1.168.38-.59.506-.956.548-1.603a4.3 4.3 0 0 0-.154-1.547 2.9 2.9 0 0 0-.717-1.168c-.281-.239-.674-.52-.899-.605a4 4 0 0 0-.941-.211 39 39 0 0 1-1.348-.141c-.605-.07-.83-.042-.984.127m.745.732.927.014c.646.014 1.082.098 1.405.281.267.141.59.506.744.788.183.365.267.816.267 1.406 0 .549-.098 1.112-.253 1.449-.182.394-.421.647-.815.83-.351.183-.856.281-2.374.296l-.028-1.829c-.014-1.013.014-2.152.056-2.532zM96.52.661c-.084.169-.07 1.027.042 2.363.085 1.154.211 2.195.267 2.279.056.098-.028.464-.182.816-.155.352-.422.717-.604.83-.169.112-.59.239-.941.295-.45.07-.787.028-1.166-.126-.281-.127-.619-.366-.731-.549-.14-.211-.28-1.111-.421-2.771a163 163 0 0 1-.211-2.645c0-.084-.098-.267-.21-.38-.155-.154-.282-.168-.493-.07-.238.113-.28.282-.28 1.013.014.492.098 1.674.196 2.645.113.97.281 1.983.408 2.25.112.268.393.661.618.872.21.211.548.436.744.493.197.07.759.112 1.264.098.619-.014 1.11-.112 1.504-.323.337-.155.758-.535.955-.83.183-.282.38-.746.435-1.013.056-.267.014-1.477-.07-2.673-.098-1.195-.197-2.32-.239-2.504-.042-.225-.154-.31-.407-.31-.183 0-.407.113-.478.24m17.546.774a3.2 3.2 0 0 0-.871.45c-.211.155-.548.548-.759.858s-.449.788-.548 1.055c-.098.267-.224.844-.281 1.266-.07.577-.028.999.155 1.674.211.703.393 1.013.857 1.435.379.337.885.633 1.334.76.408.112.97.21 1.237.21.266 0 .73-.07 1.011-.14.295-.085.759-.352 1.04-.605.28-.24.688-.802.899-1.224.21-.422.435-1.055.491-1.407.056-.351.099-.83.099-1.055 0-.239-.113-.76-.267-1.181a2.9 2.9 0 0 0-.857-1.309c-.365-.323-.871-.619-1.335-.745-.407-.113-.955-.211-1.222-.197-.267 0-.716.07-.983.155m0 1.055c.225-.155.618-.24 1.081-.24.408 0 .942.085 1.194.183.253.113.633.394.843.633.366.408.394.549.38 1.604 0 .647-.057 1.449-.127 1.8-.084.38-.295.802-.52 1.027-.224.226-.519.479-.674.549-.154.084-.632.14-1.053.14-.422-.013-1.012-.126-1.307-.238-.323-.127-.632-.408-.843-.746-.253-.436-.309-.703-.295-1.646.014-.816.099-1.294.309-1.758.169-.352.38-.732.478-.844.098-.127.337-.338.534-.464m-30.779-.366c-.098.056-.35 1.111-.561 2.335s-.52 2.898-.675 3.728c-.168.844-.267 1.617-.225 1.73s.211.21.38.21c.182.015.393-.07.477-.168.099-.098.253-.703.352-1.336l.196-1.14c1.517-.365 2.15-.506 2.388-.548.394-.07.464 0 .984.802.309.492.688.97.843 1.069.154.098.393.14.52.112.14-.028.252-.155.252-.267s-.73-1.308-1.615-2.645c-.885-1.322-1.826-2.743-2.08-3.122-.266-.394-.618-.746-.772-.788-.169-.056-.38-.042-.464.028m.324 2.687c.084-.704.224-1.294.294-1.294s.422.506.773 1.11c.365.62.66 1.196.66 1.295s-.224.24-.491.295c-.267.057-.703.141-.956.183-.309.042-.449.014-.449-.112 0-.085.07-.76.169-1.477m41.005-1.168c-.071.042-.45 1.125-.843 2.406-.394 1.28-.871 2.799-1.068 3.376a26 26 0 0 0-.351 1.083c0 .028.098.14.211.253.154.155.281.169.491.07.183-.098.408-.534.66-1.378.211-.675.45-1.266.534-1.308.071-.057.366 0 .632.112.267.113.534.253.59.295.057.057.253.788.45 1.646.239 1.083.435 1.618.632 1.787.169.14.393.225.506.183s.211-.197.211-.352-.155-.929-.352-1.73c-.267-1.083-.309-1.45-.182-1.491.098-.043.421-.197.73-.352.295-.169.66-.45.815-.647.197-.253.281-.59.295-1.224.028-.745-.028-.914-.323-1.238-.197-.21-.632-.52-.983-.703a13 13 0 0 0-1.574-.605c-.52-.14-1.011-.24-1.081-.183m.646 1.097c.028-.056.112-.098.182-.098.085 0 .548.183 1.054.422.576.267.969.548 1.082.774.14.295.14.478 0 .914-.099.338-.324.661-.562.802-.211.126-.506.239-.661.225-.154 0-.632-.113-1.053-.253-.422-.141-.801-.254-.815-.268-.028 0 .127-.548.337-1.21.211-.66.408-1.237.436-1.308m9.959 1.013c-.365.24-.674.478-.674.535.014.07.099.183.197.281.14.127.351.098.955-.14.646-.268.773-.366.773-.662 0-.239-.085-.366-.281-.394-.155-.014-.59.155-.97.38M67.33 7.427c-.196.211-.21.492-.112 2.279.056 1.125.126 2.574.14 3.235.028.661.07 1.379.099 1.618.042.225.112.506.154.59a.4.4 0 0 0 .31.184c.112 0 .28-.141.365-.324.098-.183.14-.731.112-1.35l-.056-1.041c1.517-.718 2.121-.957 2.318-1.013.28-.056.52.07 1.222.703.491.422.997.76 1.124.732a.33.33 0 0 0 .28-.282c.029-.154-.856-1.153-2.458-2.77-1.377-1.407-2.655-2.603-2.88-2.673-.295-.099-.435-.07-.618.112m.745 1.477c-.014-.239.014-.408.056-.38s.492.493 1.011 1.013c.534.52.956 1.027.956 1.111 0 .099-.352.338-.773.535s-.843.352-.913.352c-.084 0-.183-.493-.239-1.098-.042-.59-.098-1.28-.098-1.533m65.602-.717c-.253.562-.885 1.969-1.405 3.137-.505 1.153-.927 2.208-.941 2.32 0 .113.099.296.211.38.155.127.309.141.506.043a.8.8 0 0 0 .365-.465c.042-.168.197-.562.351-.872.141-.31.703-1.575 1.236-2.813.731-1.674.942-2.307.843-2.504a.52.52 0 0 0-.407-.24c-.211 0-.408.254-.759 1.014m6.575 3.953a140 140 0 0 1-2.655 2.138c-.605.464-1.265.97-1.447 1.125-.253.21-.323.366-.253.59.056.212.196.324.393.324.183 0 .717-.31 1.194-.703.492-.38.941-.703 1.026-.703.07 0 .646.295 1.278.66l1.138.676c-.141 1.308-.225 1.814-.253 1.97-.042.154.014.393.112.548.127.169.281.225.492.169.211-.057.337-.225.379-.479.042-.21.267-1.899.52-3.755.309-2.35.407-3.447.309-3.587a.68.68 0 0 0-.407-.24c-.169-.028-.871.465-1.826 1.267m.575.562c.225-.169.492-.323.562-.323.085 0 .141.168.113.38-.014.224-.099.801-.183 1.308-.098.506-.197.942-.225.984-.042.043-.491-.14-1.952-.872l.632-.577c.351-.323.829-.731 1.053-.9m-83.147-.31a.49.49 0 0 0-.253.45c.014.17.267.69.562 1.154s.702 1.126.899 1.477a48 48 0 0 0 1.18 2.026c.45.76.885 1.42.969 1.449.07.042.31-.014.52-.127a56 56 0 0 0 1.517-.816c.632-.351 1.25-.745 1.377-.872.14-.155.196-.337.126-.464-.07-.14-.239-.183-.52-.14-.239.041-.758.28-1.166.534-.407.253-.87.534-1.053.633-.169.084-.337.154-.366.126-.042-.014-.379-.562-.758-1.223-.38-.662-1.054-1.83-1.503-2.603-.436-.773-.871-1.49-.97-1.59-.084-.098-.182-.182-.224-.168-.042 0-.197.07-.337.155m90.579 8.384c-.127.141-.38.52-.562.844-.183.338-.323.647-.295.704.028.07.899.844 1.938 1.744 1.04.9 2.74 2.518 3.779 3.587 1.054 1.083 2.262 2.335 2.711 2.8.436.464 1.532 1.772 2.445 2.911s1.798 2.279 1.98 2.532c.169.253.689.999 1.138 1.66.464.661 1.026 1.435 1.265 1.716.238.296.435.591.435.675 0 .07.154.352.351.591.183.253.351.52.351.605 0 .07.155.324.323.563.183.225.534.83.787 1.336s.548 1.013.646 1.125c.099.113.506.9.913 1.759.408.844 1.082 2.279 1.503 3.165a62 62 0 0 1 1.475 3.376c.394.97.956 2.49 1.265 3.376s.829 2.602 1.152 3.798c.337 1.196.871 3.446 1.194 4.993.309 1.548.66 3.475.786 4.29.113.817.295 2.42.408 3.588.112 1.153.253 3.474.323 5.134.056 1.66.098 3.151.07 3.306s-.07.886-.098 1.618c-.042.731-.141 2.152-.211 3.165-.084.998-.183 2.11-.211 2.461-.028.352-.182 1.45-.337 2.462-.154.999-.576 3.123-.927 4.712-.351 1.59-.899 3.798-1.222 4.924a69 69 0 0 1-1.096 3.516c-.295.816-.772 2.082-1.053 2.814a43 43 0 0 1-.843 2.039c-.183.38-.913 1.899-1.616 3.376-.702 1.463-1.334 2.771-1.404 2.884-.071.113-.408.647-.731 1.196-.337.534-.66 1.097-.744 1.223-.085.127-.281.493-.464.802-.169.324-.632 1.013-1.011 1.562-.394.534-.703 1.013-.703 1.055s-.281.436-.632.872c-.365.478-.632.985-.66 1.238-.014.225.126.844.309 1.378.225.605.421.943.562.943.112 0 .491-.394.857-.886.351-.479.828-1.154 1.053-1.506.239-.351.801-1.209 1.25-1.899.45-.703.984-1.519 1.18-1.814.197-.31.422-.661.506-.802.07-.141.562-.999 1.068-1.913a78 78 0 0 0 1.995-3.84c.59-1.196 1.067-2.223 1.081-2.293 0-.056.169-.464.365-.915.211-.436.703-1.659 1.11-2.7a85 85 0 0 0 1.082-2.954c.197-.577.562-1.688.801-2.462.238-.774.59-2.11.786-2.954.197-.858.45-1.927.562-2.391.113-.465.365-1.716.562-2.786.183-1.055.379-2.194.421-2.532.029-.323.155-1.294.267-2.138.113-.858.281-2.63.366-3.938.112-1.506.14-3.911.098-6.471-.042-2.25-.183-4.994-.309-6.12a59 59 0 0 0-.436-3.375c-.112-.732-.365-2.223-.561-3.306-.211-1.083-.436-2.04-.506-2.11-.056-.084-.113-.31-.113-.534 0-.211-.182-1.126-.421-2.04-.225-.9-.576-2.18-.773-2.842a137 137 0 0 0-.871-2.602c-.28-.774-.842-2.293-1.264-3.376a66 66 0 0 0-1.264-3.024c-.267-.577-.955-2.012-1.517-3.165a70 70 0 0 0-2.037-3.798 99 99 0 0 0-1.517-2.49c-.295-.436-.717-1.07-.942-1.407a10 10 0 0 1-.632-1.013c-.112-.225-.407-.633-.646-.914s-.506-.633-.576-.788c-.084-.154-.463-.689-.843-1.195-.365-.507-1.025-1.323-1.433-1.829a160 160 0 0 0-2.036-2.363c-.703-.802-1.335-1.45-1.391-1.435-.056 0-.098-.084-.098-.183 0-.084-.773-.928-1.714-1.857a193 193 0 0 0-3.484-3.334c-.969-.886-2.009-1.786-2.318-1.997s-.604-.366-.66-.366-.197.113-.337.24m-97.59 2.265c-.196.14-1.39 1.252-2.654 2.49s-3.034 3.109-3.934 4.15c-.899 1.04-1.854 2.18-2.12 2.532-.282.351-1.04 1.322-1.686 2.18a73 73 0 0 0-2.304 3.235c-.618.929-1.39 2.167-1.714 2.743a70 70 0 0 1-.829 1.435c-.14.197-.491.802-.8 1.337-.295.52-.914 1.688-1.35 2.574a88 88 0 0 0-1.67 3.657 70 70 0 0 0-1.616 4.08c-.408 1.125-.857 2.419-.984 2.883-.14.464-.309.97-.379 1.125s-.309.971-.548 1.83a95 95 0 0 0-.702 2.602 17 17 0 0 0-.351 1.617c-.042.31-.099.59-.127.633-.028.042-.253 1.21-.491 2.602-.225 1.393-.422 2.66-.422 2.814 0 .155.042.366.113.464.056.113.435.211.94.24.464.027.956-.015 1.082-.085.14-.07.281-.338.323-.591.029-.24.197-1.28.352-2.279.168-1.013.45-2.56.646-3.446.183-.886.59-2.574.899-3.728.295-1.167.899-3.15 1.334-4.43.436-1.281.928-2.603 1.082-2.955.14-.352.351-.83.464-1.055.098-.239.477-1.083.843-1.899a93 93 0 0 1 1.39-2.954c.408-.816.83-1.702.927-1.97.113-.267.338-.688.506-.914.169-.239.407-.647.534-.914.126-.267.337-.661.463-.872.141-.197.633-.957 1.096-1.688.45-.718 1.068-1.66 1.363-2.082.309-.422.997-1.42 1.56-2.208.547-.788 1.544-2.082 2.19-2.884.66-.788 1.63-1.955 2.178-2.56a100 100 0 0 1 1.98-2.18c.535-.591 1.63-1.66 2.43-2.406.802-.732 1.476-1.477 1.518-1.66.028-.197-.112-.534-.407-.942-.253-.352-.52-.662-.618-.69-.085-.042-.324.043-.506.17m72.248 8.3c-.351.168-.773.66-1.475 1.716-.548.816-1.349 1.983-1.798 2.602s-1.18 1.618-1.616 2.223c-.435.619-.899 1.252-1.011 1.434-.113.17-.436.605-.703.971a63 63 0 0 1-1.278 1.674c-.421.563-.899 1.196-1.039 1.435-.155.225-.45.605-.675.844-.239.225-.772.886-1.208 1.449a75 75 0 0 0-1.208 1.631c-.239.338-.632.844-.885 1.154-.253.295-.927 1.111-1.517 1.814-.59.69-1.616 1.956-2.29 2.8-.66.844-2.093 2.588-3.189 3.868a187 187 0 0 0-2.922 3.53 75 75 0 0 1-1.545 1.872c-.309.38-.857 1.013-1.208 1.42s-1.77 2.082-3.16 3.728a252 252 0 0 1-4.285 4.98c-.97 1.069-2.009 2.25-2.318 2.616-.309.352-1.292 1.463-2.191 2.476-.913.999-2.065 2.236-2.571 2.743l-.927.914c-1.04-.253-2.248-.52-3.372-.76a170 170 0 0 0-2.458-.506c-.239-.028-2.037-.38-4.004-.76s-3.835-.73-4.144-.759c-.309-.042-.885-.14-1.264-.225a15 15 0 0 0-1.194-.211c-.267-.042-1.882-.295-3.582-.577-1.7-.267-3.414-.52-3.793-.562a31 31 0 0 1-1.475-.197c-.421-.085-2.191-.296-3.933-.493a361 361 0 0 0-6.884-.675c-3.132-.253-4.734-.31-10.044-.31-5.17 0-6.658.043-8.147.24-1.012.14-2.276.31-2.81.38a26 26 0 0 0-2.318.492 40 40 0 0 0-2.739.83 44 44 0 0 0-2.529.984c-.618.282-1.18.577-1.264.647a.42.42 0 0 1-.28.141c-.071 0-.464.197-.844.436-.393.254-1.081.704-1.545 1.013-.463.31-1.068.76-1.334.985-.267.225-1.152 1.055-1.939 1.843-.8.773-1.939 2.053-2.515 2.827-.59.774-1.18 1.632-1.334 1.899-.14.267-.421.745-.604 1.055-.197.31-.632 1.083-.983 1.716-.352.647-.633 1.196-.633 1.238s-.224.534-.491 1.083c-.267.563-.745 1.843-1.068 2.856-.323.998-.632 1.927-.688 2.04s-.281.942-.492 1.828-.435 1.8-.506 2.04c-.07.225-.224.984-.35 1.688-.155.801-.254 2.264-.296 4.009-.028 1.575.014 3.193.113 3.798.084.576.267 1.533.421 2.11.155.576.351 1.28.436 1.547.084.267.379.999.674 1.618s.913 1.631 1.376 2.25c.464.619 1.209 1.449 1.658 1.829.45.394 1.138.943 1.531 1.21.38.267 1.082.689 1.546.928s1.348.591 1.966.788 1.756.464 2.529.591c.913.154 2.149.239 3.512.225 1.152 0 2.865-.099 3.792-.225a62 62 0 0 0 3.091-.507 40 40 0 0 0 3.301-.858 67 67 0 0 0 3.723-1.238c.997-.365 2.332-.872 2.95-1.125a37 37 0 0 0 2.037-.872c.505-.239 2.05-.999 3.441-1.674a89 89 0 0 0 3.934-2.04c.772-.436 1.53-.914 1.685-1.041.155-.14.534-.379.843-.52.31-.155.815-.422 1.124-.605.31-.169.815-.492 1.124-.703s.843-.549 1.194-.76c.351-.197.758-.45.899-.549.154-.084.913-.59 1.686-1.111.786-.52 1.798-1.21 2.261-1.533a54 54 0 0 0 1.616-1.168 34 34 0 0 1 1.405-.984c.35-.225.885-.619 1.194-.872.309-.254.604-.479.66-.479s.477-.281.913-.633c.45-.351 1.573-1.223 2.5-1.927.928-.717 2.023-1.547 2.43-1.871.408-.309 2.108-1.702 3.794-3.094 1.671-1.379 3.554-2.968 4.158-3.517.618-.535 1.882-1.674 2.81-2.518.94-.844 3.076-2.912 4.747-4.572l3.049-3.038c3.99.942 5.675 1.336 6.335 1.491l2.388.563c.66.14 2.234.52 3.512.83s2.627.618 3.02.689c.38.07 1.49.295 2.459.492.969.211 1.98.436 2.247.507.267.07.717.168.984.197.267.042.927.168 1.475.28.533.113 2.177.465 3.652.774 1.461.31 2.683.591 2.697.605.014.029-.028.52-.098 1.098-.07.576-.225 2.067-.337 3.305a257 257 0 0 0-.366 4.08c-.07.998-.21 3.474-.295 5.486s-.112 4.642-.07 5.837c.056 1.196.155 2.997.239 4.009.084.999.267 2.546.421 3.405.141.872.478 2.264.745 3.094.267.844.562 1.604.674 1.688.099.099.408.225.675.267.266.057.772.029 1.123-.07.352-.084.759-.295.913-.478.169-.169.366-.464.45-.661.14-.296.112-.422-.126-.774-.155-.239-.689-.647-1.195-.914-.505-.268-.941-.521-.955-.563-.028-.042-.182-.577-.337-1.196-.168-.619-.337-1.35-.365-1.617-.042-.268-.07-2.237-.056-4.361 0-2.124.028-4.122.056-4.431a120 120 0 0 1 .492-4.431c.084-.577.21-1.463.28-1.969a62 62 0 0 1 .352-2.18c.126-.704.407-2.378.646-3.728s.463-2.786.52-3.193c.056-.394.182-.816.281-.915.14-.155.533-.112 2.247.211 1.138.211 2.922.52 3.962.69 1.39.21 2.57.295 4.425.309 2.289 0 2.598-.028 3.301-.31a12 12 0 0 0 1.615-.844c.464-.295.984-.731 1.166-.956.169-.225.309-.591.309-.83 0-.24-.182-.774-.393-1.196a29 29 0 0 0-.787-1.477c-.224-.394-.871-1.28-1.433-1.97-.547-.702-1.699-1.94-2.542-2.756-1.068-1.055-1.658-1.505-1.981-1.576-.281-.07-.534-.028-.674.07-.113.1-.211.338-.197.535 0 .197.127.535.281.774.141.225.717.83 1.278 1.336.562.507 1.349 1.323 1.742 1.829.408.506.899 1.294 1.096 1.758.183.464.393 1.196.45 1.618.07.577.042.9-.127 1.266-.14.31-.393.563-.674.675-.253.113-.717.253-1.026.338-.309.07-1.166.126-1.896.126a19 19 0 0 1-2.458-.14c-.618-.085-1.349-.17-1.616-.211-.267-.028-1.25-.225-2.177-.436s-2.121-.493-2.641-.648q-.941-.267-.941-.478c0-.112.126-.858.281-1.66.168-.787.421-2.011.576-2.7.154-.704.505-2.18.772-3.306s.815-3.207 1.194-4.642c.394-1.435.913-3.306 1.18-4.15.253-.858.632-2.18.843-2.954.197-.773.773-2.771 1.278-4.43.492-1.66 1.925-6.134 3.161-9.918 1.25-3.798 3.259-9.931 4.481-13.645 2.051-6.203 2.22-6.78 2.037-7.103-.098-.197-.52-.633-.927-.985a21 21 0 0 0-1.25-.97 6.4 6.4 0 0 0-.773-.45 3 3 0 0 1-.491-.268c-.113-.07-.436-.225-.703-.352-.267-.112-.843-.31-1.264-.422s-1.026-.21-1.335-.21-.786.112-1.053.252m-.773 6.33c.225-.141.604-.254.843-.254a.94.94 0 0 1 .702.296c.239.253.281.478.253 1.59-.014 1.11-.098 1.547-.674 3.319a977 977 0 0 0-1.854 5.838 648 648 0 0 0-1.756 5.626c-.295 1-.675 2.237-.829 2.743-.155.507-.534 1.801-.843 2.884a423 423 0 0 0-3.048 11.324 192 192 0 0 0-1.293 5.345 238 238 0 0 0-1.123 5.346c-.31 1.505-.661 3.657-.787 4.782-.141 1.126-.253 2.054-.267 2.082 0 .028-.632-.056-1.405-.183a52 52 0 0 1-1.896-.351 41 41 0 0 0-1.194-.282c-.394-.084-1.363-.31-2.178-.492-.814-.183-2.964-.675-4.776-1.111s-4.51-1.098-5.97-1.491c-1.475-.38-4.13-1.112-5.9-1.618-1.784-.52-3.301-.985-3.371-1.055-.085-.085.084-.38.491-.816.351-.394 1.77-1.927 3.16-3.432a663 663 0 0 0 5.072-5.528 196 196 0 0 0 3.371-3.799c.45-.548 1.35-1.589 1.995-2.32.646-.732 1.377-1.562 1.63-1.83.253-.267 1.053-1.223 1.784-2.123.73-.886 2.163-2.603 3.189-3.798 1.039-1.196 1.98-2.321 2.107-2.518.126-.197.8-1.055 1.503-1.9.702-.857 1.686-2.053 2.191-2.672.506-.619 1.293-1.604 1.742-2.18.464-.577.899-1.168.984-1.294.07-.113.646-.844 1.264-1.604.632-.774 1.32-1.66 1.545-1.983.239-.324.801-1.055 1.264-1.618a50 50 0 0 0 1.686-2.209c.464-.647 1.096-1.462 1.405-1.814s.744-.746.983-.9m-91.999 40.51c.028-.028 2.402-.043 5.282-.014 2.88.014 6.476.098 7.98.183 1.502.084 3.876.239 5.267.351 1.39.127 3.09.281 3.793.352.688.084 1.643.183 2.107.21.464.043 1.026.1 1.264.127.225.043 1.56.226 2.95.437 1.391.197 2.782.393 3.09.422.31.042.731.098.942.14s.534.099.702.127c.183.028.857.154 1.518.267.66.127 2.936.577 5.057.999a441 441 0 0 1 6.462 1.378c1.433.324 2.64.62 2.697.661.056.043-.408.605-1.054 1.238-.632.633-1.98 1.956-2.978 2.94-1.011.985-2.43 2.321-3.16 2.996-.731.662-2.122 1.942-3.091 2.828s-2.894 2.56-4.27 3.728c-1.377 1.153-3.049 2.546-3.695 3.094a60 60 0 0 1-1.56 1.266c-.21.155-1.151.844-2.064 1.534-.927.689-1.897 1.42-2.164 1.617l-1.067.788c-.323.225-1.152.816-1.84 1.308s-1.532 1.097-1.883 1.365c-.351.253-.688.478-.744.478-.057.014-.59.352-1.194.76-.59.393-2.023 1.308-3.161 1.997a100 100 0 0 1-2.529 1.519c-.253.141-.702.408-1.011.591-.31.183-1.672.872-3.02 1.547a135 135 0 0 1-4.004 1.927c-.857.38-2.121.915-2.81 1.196a70 70 0 0 1-2.669.985c-.772.267-2.36.731-3.512 1.027-1.166.295-2.893.675-3.863.83-.969.168-2.669.365-3.793.45-1.123.084-2.612.098-3.3.056a20 20 0 0 1-2.389-.352c-.618-.14-1.531-.45-2.037-.675a16 16 0 0 1-1.685-.942c-.422-.296-1.068-.788-1.42-1.112-.35-.309-.94-.984-1.306-1.491-.379-.506-.913-1.392-1.208-1.969a20 20 0 0 1-.885-2.18 27 27 0 0 1-.505-1.829 30 30 0 0 1-.295-1.899c-.085-.661-.14-1.829-.14-2.602 0-.774.055-2.068.14-2.884.084-.816.252-2.082.365-2.813.126-.732.491-2.321.829-3.517s.772-2.588.969-3.095c.21-.506.435-1.04.506-1.195.07-.155.35-.76.618-1.337.267-.576.702-1.435.955-1.899a35 35 0 0 1 .983-1.617c.281-.422.941-1.28 1.447-1.9a47 47 0 0 1 1.728-1.955 18 18 0 0 1 1.644-1.49 20 20 0 0 1 1.685-1.126c.464-.253 1.349-.732 1.967-1.07a20 20 0 0 1 2.388-1.026c.688-.253 1.896-.577 2.67-.731.772-.155 2.387-.409 3.581-.563 1.194-.155 2.74-.31 3.428-.338s1.264-.07 1.292-.098m122.06 49.036c-.239.099-.815.563-1.306 1.041-.478.479-.871.985-.871 1.112.014.14.253.478.534.745.295.267 1.25 1.196 2.135 2.068s1.714 1.589 1.826 1.589a.67.67 0 0 0 .421-.211c.183-.211.113-.323-.772-1.139l-.984-.9c.773-.802.928-.858 1.335-.802.267.042 1.011.155 1.658.267 1.025.155 1.18.155 1.292-.028.07-.141.056-.281-.042-.394-.099-.098-.646-.281-1.222-.394-.576-.126-1.152-.253-1.265-.267-.154-.014-.21-.211-.21-.717-.014-.45-.099-.83-.281-1.098-.155-.225-.52-.562-.815-.745-.281-.169-.632-.324-.773-.324a3 3 0 0 0-.66.197m-.042.929c.183-.071.463-.127.632-.127.183-.014.506.169.745.408.224.225.421.521.421.633 0 .113-.098.422-.211.661-.112.253-.393.647-1.067 1.308l-1.7-1.688.435-.548c.239-.296.576-.591.745-.647m-102.084.183c-.337.084-.871.45-1.335.886-.421.394-.927 1.027-1.123 1.406-.211.422-.338.901-.324 1.252 0 .31.099.788.211 1.055.112.268.52.802.9 1.168.379.38.786.745.898.816.127.07.31.056.464-.056.14-.099.21-.268.168-.38-.042-.113-.337-.38-.632-.605-.309-.211-.702-.647-.857-.985-.239-.45-.28-.731-.21-1.224.056-.478.238-.815.716-1.378.492-.577.787-.774 1.363-.957.618-.183.842-.197 1.306-.056.31.084.717.295.927.464.197.169.45.493.576.732.113.225.31.464.436.52.168.085.28.014.393-.211.126-.267.07-.422-.351-1.055-.323-.45-.759-.872-1.18-1.111-.365-.211-.913-.394-1.222-.408a3.4 3.4 0 0 0-1.124.127m95.172 5.218c-.575.324-1.025.704-1.348 1.168-.407.563-.492.788-.492 1.407.014.408.099.956.197 1.195.112.253.562.872 1.025 1.365.45.492 1.026.984 1.279 1.097.253.098.702.183.983.183.295-.014.759-.085 1.026-.183.266-.099.758-.394 1.095-.661.408-.338.689-.732.899-1.266.211-.549.267-.915.197-1.266-.042-.267-.211-.746-.379-1.055-.155-.31-.604-.9-1.012-1.308-.534-.549-.913-.802-1.433-.957-.393-.113-.8-.197-.927-.197-.126 0-.632.211-1.11.478m.59.521c.253-.071.506-.141.562-.141.057-.014.309.071.562.169s.717.408 1.026.689c.309.282.716.816.899 1.182.197.38.351.886.351 1.125.014.239-.155.675-.379 1.013-.239.366-.576.675-.913.802-.281.126-.675.211-.871.211-.197 0-.59-.085-.885-.211-.323-.127-.745-.493-1.096-.957-.309-.394-.632-.984-.716-1.294a1.93 1.93 0 0 1 .014-1.097c.084-.281.337-.717.576-.943.224-.239.618-.478.87-.548m-89.23-.085c-.407.127-.87.437-1.306.873-.38.365-.871 1.055-1.096 1.519-.365.731-.407.942-.323 1.547.042.38.168.858.267 1.055.098.197.421.591.73.872.295.282.703.591.913.661.211.085.717.155 1.124.155a2.95 2.95 0 0 0 1.363-.323c.35-.169.828-.563 1.081-.873.24-.309.59-.844.773-1.195.169-.352.351-.886.38-1.196.055-.408-.015-.745-.24-1.196-.182-.351-.52-.844-.772-1.097-.239-.253-.773-.591-1.18-.731-.408-.155-.815-.282-.913-.268-.099 0-.45.099-.801.197m.07.943c.155-.084.534-.169.843-.169.407 0 .717.113 1.152.422.337.225.674.563.759.732.084.182.182.464.21.633.028.182-.042.619-.168.984-.127.38-.464.957-.745 1.294s-.688.704-.899.802c-.21.113-.646.197-.983.197-.365 0-.787-.112-1.082-.309-.267-.155-.604-.436-.73-.591q-.24-.295-.253-1.069c0-.619.07-.9.393-1.407.225-.352.59-.802.815-.999.225-.211.534-.436.688-.52m82.432 3.066c-.057.085-.337.268-.604.422-.267.155-.618.366-.773.465-.155.084-.618.379-1.025.619-.548.323-.759.548-.745.745 0 .155.084.31.183.338.098.042.435-.085.744-.268.309-.196.632-.351.731-.351s.351.295.562.647c.21.366.449.759.533.886a55 55 0 0 1 1.194 1.871c.113.211.38.577.59.802.211.239.464.408.562.38.099-.029.169-.211.141-.422-.014-.197-.141-.535-.281-.76-.141-.211-.464-.675-.703-1.055-.252-.366-.449-.703-.449-.774 0-.056-.295-.548-.646-1.083-.337-.548-.618-1.027-.618-1.097 0-.056.309-.267.702-.492.393-.211.73-.465.759-.563a.5.5 0 0 0 0-.324c-.029-.07-.211-.126-.408-.126-.182 0-.393.07-.449.14M64.9 139.725c-.646.112-.87.253-1.39.787-.338.352-.703.816-.801 1.027-.113.225-.295.746-.408 1.168-.182.675-.182.858-.014 1.435.127.379.408.872.675 1.125.252.239.772.605 1.165.802.38.211.843.365 1.012.365.183 0 .351-.07.393-.14a.43.43 0 0 0 0-.324c-.028-.084-.365-.281-.73-.436-.38-.14-.787-.366-.941-.492a2.1 2.1 0 0 1-.45-.619c-.112-.211-.197-.661-.197-1.013s.085-.844.183-1.097c.098-.239.407-.689.674-.999.253-.295.647-.633.857-.731a2 2 0 0 1 .815-.197c.225 0 .716.155 1.082.351.365.197.828.493 1.025.648.197.168.422.267.52.211.098-.043.182-.211.182-.366s-.224-.478-.491-.704c-.267-.239-.8-.548-1.166-.703s-.787-.281-.941-.267c-.155.014-.632.084-1.054.169m67.288 2.307c-.112.042-.182.182-.168.337.014.141.337.915.702 1.702.379.802.787 1.688.913 1.97.127.295.239.745.239.984 0 .324-.112.577-.379.844-.225.211-.576.45-.787.521a2.5 2.5 0 0 1-.773.154c-.21 0-.519-.098-.702-.211-.183-.126-.759-1.139-1.363-2.391-.814-1.688-1.109-2.166-1.306-2.138-.155.014-.253.183-.281.45-.014.239.028.478.098.563.071.07.225.394.337.703.113.31.478 1.125.815 1.815.422.844.773 1.35 1.11 1.603.337.254.688.366 1.124.394.351 0 .913-.098 1.264-.239a3.9 3.9 0 0 0 1.026-.647c.238-.239.435-.647.519-1.027a3.5 3.5 0 0 0-.014-1.266 7 7 0 0 0-.548-1.407 25 25 0 0 1-.758-1.617c-.197-.464-.464-.915-.604-.999-.141-.084-.351-.127-.464-.098m-60.405 1.336c-.154.253-.35.647-.421.886-.07.225-.492 1.154-.927 2.04s-.843 1.744-.913 1.899a.59.59 0 0 0 .056.548c.112.169.253.24.407.183.14-.056.492-.619.801-1.266.295-.633.787-1.66 1.068-2.279.295-.618.618-1.336.716-1.589.113-.239.169-.549.127-.661-.043-.113-.197-.211-.352-.211-.168 0-.393.183-.562.45m5.001 1.575c-.112.085-.632 1.435-1.166 2.997-.856 2.532-.927 2.869-.744 3.066.169.169.253.183.435.042.127-.098.52-1.097.9-2.222.365-1.126.702-2.138.73-2.251.056-.169.098-.155.197.07.07.155.45 1.52.828 3.025.38 1.505.773 2.785.871 2.841.099.057.295.113.422.113.14 0 .309-.113.365-.253.07-.127.365-.971.66-1.857a92 92 0 0 1 .703-2.04c.098-.239.295-.745.435-1.153.21-.605.225-.774.084-.915-.126-.14-.238-.14-.421-.028-.14.085-.534 1.027-.941 2.209-.408 1.181-.773 2.068-.885 2.068-.099 0-.225-.24-.31-.535-.07-.281-.35-1.421-.631-2.532-.267-1.097-.576-2.152-.675-2.349-.098-.197-.28-.38-.421-.408-.127-.028-.337.014-.436.112m45.149 1.379c-.07.183-.224 1.702-.351 3.376-.112 1.688-.182 3.165-.14 3.278s.196.211.351.211c.169 0 .337-.141.435-.394.085-.211.127-.718.099-1.14-.042-.745-.042-.759.449-.97a12 12 0 0 1 1.265-.408c.758-.197.772-.183 1.025.126.141.183.478.563.745.844.337.38.547.507.688.422.126-.056.253-.183.281-.281.042-.084-.576-.971-1.363-1.969a180 180 0 0 0-2.107-2.603c-.407-.492-.787-.802-.955-.802-.169 0-.337.141-.422.31m.661 1.913c.07-.506.154-.76.253-.675.07.056.435.492 1.475 1.828l-.885.282c-.675.211-.9.239-.984.098-.056-.084-.07-.295-.042-.45s.112-.647.183-1.083m-35.386-.155c-.099.127-.632.971-1.194 1.857-.562.9-1.194 1.885-1.433 2.195-.225.309-.52.745-.632.984-.169.324-.183.464-.043.605.085.099.24.183.338.169.098 0 .365-.267.576-.605.224-.324.435-.703.491-.844s.24-.239.478-.239c.21.014.8.098 1.306.211s.913.225.927.239c0 .028.085.422.183.886s.197.957.239 1.083c.028.155.182.254.407.254.197 0 .38-.099.422-.211.042-.113-.113-1.14-.337-2.293-.225-1.14-.492-2.546-.59-3.123-.099-.605-.281-1.126-.408-1.224-.112-.098-.28-.183-.38-.183-.083 0-.238.113-.35.239m.225 1.097.112.422c.056.226.154.816.21 1.309.057.478.085.872.043.872s-.267-.056-.492-.127c-.239-.07-.604-.169-.815-.211-.295-.07-.365-.14-.28-.337.055-.127.238-.465.42-.732.17-.267.422-.647.563-.844zm23.108-.562c-.042.028-.506.098-1.04.14-.548.043-1.095.113-1.236.141-.183.056-.239.211-.239.633 0 .31.127 1.618.281 2.912.155 1.308.309 2.476.351 2.602.029.141.197.31.352.394.182.099.674.099 1.503 0a59 59 0 0 0 1.545-.211c.225-.056.309-.155.281-.394-.028-.295-.07-.309-1.433-.267l-1.405.056c-.168-1.547-.196-2.039-.168-2.11.042-.056.491-.154 1.025-.225.534-.056 1.068-.169 1.208-.239.141-.07.253-.225.253-.337s-.154-.254-.323-.296-.759-.014-1.292.056c-.548.071-1.012.127-1.026.113-.014 0-.084-.436-.14-.957s-.085-.956-.071-.956.52-.07 1.124-.155c.604-.07 1.194-.169 1.335-.211.14-.028.253-.183.253-.338 0-.154-.099-.309-.211-.351a2 2 0 0 0-.548-.071c-.183 0-.351.029-.379.071" clip-rule="evenodd"/></g><defs><clipPath id="a"><path fill="#fff" d="M0 0h177v156H0z"/></clipPath></defs></svg>