<svg xmlns="http://www.w3.org/2000/svg" width="294" height="156" fill="none" viewBox="0 0 294 156"><g fill="#221e1e" clip-path="url(#a)"><path d="M136.186 3.438c.62-1.224 1.25-1.943 2.258-2.57 1.142-.71 1.759-.868 3.345-.868q1.945 0 3.111.592c.641.327 1.466.921 1.829 1.323.368.402.89 1.186 1.167 1.744.277.557.592 1.606.7 2.335.128.863.022 1.865-.305 2.88-.283.881-.942 1.98-1.518 2.535-.559.535-1.508 1.22-2.106 1.516-.803.399-1.637.51-3.161.424-1.686-.094-2.324-.29-3.422-1.053-.8-.557-1.637-1.51-2.054-2.335-.473-.944-.702-1.955-.702-3.11 0-1.256.229-2.168.858-3.413M282.178 91.7c.513-.259 1.459-.592 2.1-.748.641-.152 1.341-.292 1.556-.311.214-.016 1.054.109 1.866.28.955.2 1.964.722 2.843 1.48.751.64 1.649 1.727 1.992 2.412.345.685.815 1.947 1.042 2.803.23.856.42 2.326.423 3.269.003.941-.276 2.834-.625 4.204-.351 1.37-1.086 3.241-1.639 4.163-.551.918-1.703 2.291-2.558 3.052-.856.759-2.536 1.862-3.734 2.447s-2.352 1.068-2.567 1.074c-.213.003-.945-1.009-1.623-2.251-.678-1.243-1.241-2.398-1.247-2.569-.01-.171.513-.511 1.157-.757s1.739-1.015 2.433-1.712c.749-.751 1.543-1.996 1.944-3.058.376-.984.681-1.965.681-2.18 0-.27-.61-.389-2.003-.389-1.872 0-2.081-.071-3.121-1.09-.612-.598-1.269-1.581-1.459-2.18-.202-.635-.27-1.936-.161-3.113.13-1.436.413-2.363.976-3.192.436-.641 1.21-1.376 1.724-1.634M87.734 111.784c.513-.513 1.387-1.061 1.944-1.217.557-.155 1.223-.299 1.478-.318s.955.131 1.555.328c.6.198 1.413.656 1.808 1.018.398.36 1.226 1.565 1.842 2.68s1.82 3.073 2.678 4.36a71 71 0 0 0 3.329 4.515c.974 1.198 2.85 3.3 4.166 4.67 1.319 1.37 2.604 2.984 2.853 3.581.246.598.448 1.897.442 2.881-.003 1.199-.318 2.64-.943 4.359-.516 1.413-.93 2.637-.927 2.725.006.083 1.024-.073 2.258-.35 1.239-.28 3.579-.735 5.206-1.015 1.626-.28 3.901-.507 5.055-.507 1.745.003 2.692.237 5.6 1.379 1.926.76 4.76 1.735 6.3 2.168 1.54.435 4.06 1.021 5.6 1.304s4.548.608 6.689.723c2.137.112 5.709.105 7.933-.013 2.225-.121 5.793-.573 7.934-1.005 2.137-.433 5.36-1.29 7.155-1.907 1.796-.616 4.947-1.94 7-2.942 2.053-.999 4.993-2.649 6.534-3.664s4.06-2.896 5.6-4.18c1.539-1.285 3.833-3.449 5.095-4.804 1.263-1.358 3.152-3.612 4.201-5.014 1.048-1.397 2.591-3.707 3.431-5.137a282 282 0 0 1 2.256-3.761c.401-.642 1.181-1.402 1.739-1.691.557-.287 1.64-.52 2.411-.52s1.854.233 2.411.52c.556.289 1.322.978 1.702 1.535.445.651.734 1.622.811 2.724.107 1.53-.022 1.978-1.194 4.205-.722 1.37-2.264 3.892-3.432 5.604-1.166 1.712-3.226 4.443-4.579 6.071-1.353 1.626-3.821 4.22-5.485 5.761s-4.312 3.762-5.886 4.93c-1.571 1.17-3.979 2.808-5.348 3.636s-4.238 2.351-6.378 3.382c-2.137 1.03-5.497 2.425-7.467 3.101-1.969.672-4.978 1.532-6.688 1.903-1.711.373-4.512.877-6.222 1.12-1.712.243-4.057.446-5.212.449-1.188.003-2.1.14-2.1.318 0 .18-.986.311-2.333.311-1.285 0-2.334-.105-2.33-.234 0-.127-1.507-.336-3.345-.457-1.842-.125-4.887-.504-6.77-.847-1.882-.343-4.894-1.044-6.688-1.563a94 94 0 0 1-6.223-2.074c-2.629-1.006-3.145-1.106-4.666-.906-.94.124-4.44.906-7.778 1.731-3.338.828-7.713 2.006-9.722 2.615-2.01.614-3.868 1.112-4.123 1.112s-.466.141-.466.312c0 .17-.28.311-.622.311-.343 0-.623-.141-.623-.311 0-.171-.314-.315-.7-.321s-1.154-.286-1.71-.623c-.558-.336-1.224-1.033-1.479-1.547-.255-.515-.47-1.741-.476-2.725-.009-1.597.128-1.993 1.273-3.658a366 366 0 0 0 3.223-4.826c1.067-1.63 2.417-3.825 4.07-6.805l-2.256-2.357c-1.242-1.298-3.208-3.656-4.374-5.24-1.164-1.585-2.726-3.861-3.473-5.06s-1.754-3.02-2.24-4.048c-.482-1.027-.88-2.221-.877-2.647 0-.429.14-1.304.311-1.945.168-.642.728-1.589 1.242-2.103"/><path fill-rule="evenodd" d="m30.46 30.826 11.073-.018L56.7 66.78c8.34 19.785 15.167 36.114 15.167 36.285 0 .199-2.402.283-13.478.155l-2.902-7.161a3702 3702 0 0 1-4.465-11.054l-30.644-.022-7.467 18.237-6.455.078c-3.55.044-6.456.007-6.456-.078 0-.084 6.592-15.814 14.65-34.952s14.912-35.39 15.232-36.12zm-.363 30.425-4.745 11.59 20.69.021c-4.611-11.222-6.827-16.755-7.897-19.539-1.067-2.784-2.109-5.06-2.318-5.06-.205 0-.51.315-.678.701-.17.386-2.442 5.916-5.052 12.287m49.249-30.126 11.962.168.311 58.85.672 1.09c.367.598 1.033 1.265 1.478 1.48.445.214 1.191.389 1.661.389.473 0 1.733-.42 4.745-1.869l.339 1.324c.183.728.743 2.796 1.241 4.593.856 3.085.877 3.294.364 3.693-.299.233-1.524.899-2.722 1.479-1.198.579-3.226 1.276-4.511 1.55-1.565.333-3.254.452-5.134.358-2.047-.102-3.248-.339-4.48-.887-.93-.411-2.168-1.299-2.78-1.99-.604-.685-1.416-1.946-1.8-2.802-.382-.856-.845-2.644-1.029-3.97-.218-1.576-.33-12.997-.323-32.935zm172.65.013h11.816l.082 29.191c.071 26.081.133 29.307.582 30.282.276.6.817 1.37 1.2 1.712.514.458 1.127.62 2.3.61 1.154-.006 2.013-.246 4.554-1.7l.277.701c.152.386.747 2.435 2.367 8.401l-.777.635c-.426.346-1.618 1.015-2.644 1.485-1.027.468-2.988 1.097-4.356 1.395-1.68.368-3.348.505-5.134.418-2.177-.103-3.011-.302-4.744-1.131-1.829-.875-2.259-1.254-3.347-2.951-.8-1.246-1.416-2.703-1.712-4.048-.391-1.785-.464-6.866-.464-33.551zM132.063 55.77c1.711-.022 4.338.171 5.834.43 1.5.258 3.668.828 4.822 1.264 1.158.439 3.08 1.407 4.278 2.154 1.198.748 2.987 2.177 3.973 3.176.983 1 2.078 2.236 2.427 2.75.347.514 1.029 1.706 1.515 2.647.481.943 1.259 2.905 1.723 4.359.6 1.877.896 3.596 1.017 5.916.106 1.996.022 4.24-.22 5.76-.216 1.37-.744 3.472-1.173 4.671s-1.351 3.16-2.047 4.36c-.7 1.198-2.2 3.091-3.338 4.203-1.139 1.115-2.825 2.479-3.75 3.036a32 32 0 0 1-3.549 1.772 42 42 0 0 1-3.889 1.326c-1.584.439-3.167.561-7.311.561-4.605-.004-5.609-.097-7.778-.726-1.369-.395-3.749-1.373-5.289-2.17-2.075-1.074-3.409-2.052-5.161-3.79-1.3-1.289-2.847-3.185-3.435-4.213-.591-1.027-1.372-2.568-1.736-3.425s-.902-2.746-1.195-4.203c-.41-2.037-.494-3.581-.367-6.695.118-2.812.374-4.76.843-6.383.371-1.283 1.155-3.245 1.74-4.36.588-1.111 1.694-2.83 2.467-3.814.771-.984 2.206-2.42 3.189-3.191.986-.773 2.7-1.881 3.811-2.464 1.113-.582 3.001-1.357 4.199-1.721s2.879-.782 3.733-.928c.856-.144 2.957-.28 4.667-.302m-5.911 12.863c-.684.398-1.987 1.547-2.899 2.553-1.008 1.115-1.905 2.5-2.293 3.543-.389 1.047-.696 2.806-.79 4.515-.109 2.015-.01 3.329.351 4.671.277 1.028.881 2.5 1.341 3.27.461.772 1.406 1.967 2.101 2.662.69.691 2.028 1.631 2.967 2.09.942.457 2.552.968 3.577 1.136 1.23.202 2.561.199 3.889-.007 1.115-.168 2.76-.65 3.657-1.07s2.333-1.464 3.189-2.32c.889-.891 1.991-2.457 2.566-3.66.962-1.998 1.011-2.275 1.008-5.682-.007-3.064-.115-3.848-.766-5.449-.413-1.027-1.188-2.429-1.72-3.114s-1.658-1.768-2.504-2.41c-.846-.638-2.168-1.385-2.94-1.656-.768-.271-2.449-.551-3.734-.626-1.537-.087-2.914.031-4.044.349-.939.264-2.271.806-2.956 1.205m95.2-12.857c1.712-.01 4.232.184 5.601.426 1.455.262 3.394.894 4.666 1.526 1.198.595 2.853 1.753 3.678 2.578.823.826 1.897 2.342 2.386 3.37.486 1.027 1.135 2.708 1.437 3.736.494 1.672.563 3.671.743 35.964h-10.267l.01-2.102c.007-1.155-.1-2.204-.233-2.329-.134-.124-.802.287-1.487.916-.684.629-2.225 1.61-3.422 2.179-1.202.57-3.364 1.252-4.823 1.52-1.698.311-3.475.423-4.977.311-1.283-.096-3.174-.464-4.201-.816s-2.426-.965-3.111-1.366c-.684-.402-1.866-1.414-2.628-2.246-.763-.834-1.705-2.216-2.094-3.073-.392-.856-.88-2.678-1.089-4.048-.299-1.943-.299-3.073-.009-5.137.252-1.806.703-3.338 1.428-4.827.649-1.342 1.589-2.659 2.442-3.425.759-.685 2.209-1.694 3.223-2.239 1.011-.548 2.818-1.23 4.016-1.52 1.328-.32 3.453-.526 5.444-.529 2.11 0 3.986.19 5.289.536 1.115.296 2.689.875 3.501 1.289 1.366.694 1.493.71 1.683.206.115-.3.121-1.455.018-2.57-.105-1.11-.401-2.652-.662-3.424-.295-.879-1.027-1.934-1.961-2.834-1.215-1.17-1.828-1.504-3.357-1.828-1.178-.252-2.725-.324-4.199-.196-1.282.112-3.102.402-4.045.648-.939.243-2.759.878-4.044 1.413-1.282.533-2.414.854-2.517.713-.1-.137-.766-1.933-1.478-3.988s-1.3-3.945-1.306-4.204c-.007-.277.846-.862 2.103-1.445a41 41 0 0 1 4.287-1.647c1.198-.367 3.23-.86 4.511-1.096 1.284-.233 3.733-.433 5.444-.442m-5.988 28.49c-.554.406-1.22 1.16-1.478 1.673-.256.514-.461 1.669-.457 2.569.005 1.062.223 1.99.622 2.647.404.663 1.228 1.298 2.401 1.843 1.587.738 2.057.813 4.123.673 1.377-.094 2.97-.433 3.889-.829.855-.37 2.153-1.267 2.884-1.996l1.328-1.326-.168-4.67c-3.522-1.741-4.1-1.853-7-1.928-1.852-.05-3.672.065-4.2.261-.514.19-1.388.676-1.944 1.084m-24.189-28.11c2.722.075 3.727.23 4.9.769.815.374 1.478.819 1.478.99s-.863 2.588-1.914 5.371c-1.055 2.784-2.035 5.2-2.18 5.372-.172.202-.788.056-1.74-.415-.812-.398-2.317-.8-3.344-.89-1.027-.094-2.427-.019-3.111.165s-1.708.657-2.274 1.052c-.567.396-1.51 1.311-3.171 3.357v31.449h-11.822V56.982h11.822l-.009 1.479c-.004.813.103 1.579.233 1.703.134.122.874-.345 1.642-1.043.773-.697 1.82-1.485 2.334-1.753.513-.268 1.565-.67 2.333-.894.888-.258 2.657-.373 4.823-.317" clip-rule="evenodd"/><path d="M157.926 2.413c.495-.47 1.456-1.062 2.141-1.31.684-.25 1.804-.462 2.489-.471.718-.01 1.9.305 2.799.744.937.455 1.883 1.233 2.378 1.95.454.653.995 1.75 1.206 2.434.231.741.302 1.813.181 2.647-.112.772-.55 1.996-.974 2.725-.461.79-1.3 1.625-2.091 2.07-.727.414-1.882.841-2.566.956-.684.112-1.873.053-2.645-.13-.806-.194-1.984-.829-2.775-1.498-.756-.642-1.561-1.62-1.788-2.177s-.411-1.818-.408-2.802c.006-1.074.239-2.289.585-3.036.314-.685.977-1.632 1.468-2.102m-37.992 4.188c.513-.268 1.406-.57 1.984-.676.579-.105 1.559-.102 2.178.004.619.105 1.546.414 2.06.685.513.27 1.31.89 1.773 1.376.46.486 1.055 1.41 1.323 2.052.264.641.481 1.797.481 2.569s-.217 1.927-.481 2.569c-.268.641-.863 1.566-1.323 2.052-.463.485-1.366 1.152-2.007 1.479-.688.352-1.808.594-2.722.594-.855 0-2.082-.218-2.722-.482-.641-.268-1.568-.863-2.063-1.324-.491-.464-1.154-1.4-1.469-2.086-.317-.685-.578-1.806-.581-2.49-.003-.686.134-1.773.305-2.414.168-.642.762-1.675 1.319-2.298.557-.62 1.431-1.345 1.945-1.61m57.549 2.195c.593-.47 1.608-1.021 2.255-1.22.644-.203 1.382-.38 1.639-.393.259-.015 1.239.2 2.179.477 1.181.349 2.071.878 2.877 1.716.797.825 1.326 1.78 1.665 3.001.408 1.467.432 2.046.137 3.192-.2.772-.676 1.89-1.061 2.49-.427.664-1.366 1.427-2.393 1.95-1.03.523-2.177.856-2.936.853-.685-.006-1.805-.18-2.489-.389-.685-.206-1.817-.94-2.514-1.628-.937-.922-1.363-1.663-1.621-2.81-.193-.855-.265-2.117-.161-2.802.102-.684.444-1.771.761-2.413.318-.641 1.067-1.553 1.662-2.024m-78.114 9.33c.703-.739 1.835-1.533 2.52-1.77.684-.233 1.664-.435 2.178-.445.513-.012 1.493.15 2.177.362.685.208 1.827.943 2.539 1.628.97.94 1.422 1.713 1.817 3.117.444 1.588.466 2.102.139 3.425-.283 1.15-.758 1.937-1.816 3.002-.98.987-1.879 1.566-2.834 1.824-.79.212-2.01.29-2.8.178-.772-.11-1.994-.542-2.722-.965-.728-.424-1.59-1.156-1.92-1.626-.327-.47-.753-1.557-.946-2.413-.261-1.17-.255-1.98.022-3.27.283-1.292.685-2.039 1.646-3.048m94.453 2.356c.427-.311 1.338-.769 2.023-1.015.684-.246 1.593-.454 2.022-.464.426-.01 1.474.23 2.324.533.853.302 1.959.968 2.464 1.482s1.169 1.494 1.478 2.18c.31.684.566 1.805.569 2.49s-.149 1.807-.337 2.492c-.214.775-.854 1.743-1.708 2.568-.768.745-1.878 1.46-2.535 1.632-.641.171-1.586.311-2.1.311-.513 0-1.459-.14-2.099-.311-.642-.168-1.681-.763-2.306-1.32-.629-.558-1.393-1.573-1.705-2.258s-.569-1.946-.576-2.802c-.009-1.102.24-2.052.847-3.254.476-.934 1.21-1.952 1.639-2.264m11.9 15.877c.558-.383 1.639-.859 2.412-1.061.771-.203 1.748-.296 2.177-.212.427.087 1.269.311 1.867.504.597.19 1.497.704 1.997 1.14.501.433 1.235 1.492 1.63 2.348.398.856.722 2.045.722 2.646.003.598-.137 1.617-.307 2.258s-.763 1.681-1.32 2.307c-.557.63-1.571 1.395-2.256 1.707-.684.311-1.945.566-2.799.57-1.021.003-2.12-.265-3.189-.773-1.12-.532-1.901-1.183-2.489-2.077-.669-1.021-.878-1.75-.956-3.347-.083-1.694.038-2.326.7-3.68.439-.9 1.254-1.947 1.811-2.33"/></g><defs><clipPath id="a"><path fill="#fff" d="M0 0h294v156H0z"/></clipPath></defs></svg>