<svg xmlns="http://www.w3.org/2000/svg" width="416" height="156" fill="none" viewBox="0 0 416 156"><path fill="#221e1e" d="M143.517 22.458c19.734-1.96 37.338 12.397 39.37 32.11 2.035 19.714-12.268 37.358-31.988 39.46-19.822 2.113-37.584-12.27-39.63-32.083-2.042-19.814 12.412-37.516 32.248-39.487m7.022 61.089c14.014-1.918 23.808-14.84 21.855-28.841s-14.912-23.753-28.915-21.765c-13.954 1.98-23.671 14.873-21.725 28.82 1.947 13.95 14.822 23.693 28.785 21.786M36.215 21.44c2.616.09 4.173 1.088 5.484 3.384 1.696 2.97 2.997 6.175 4.513 9.243l9.612 19.1 8.177 16.291c1.358 2.737 3.245 6.254 4.25 9.064 2.19-5.436 5.7-12.16 8.324-17.454l12.857-25.724c2.098-4.11 4.136-8.86 6.778-12.652.507-.724 2.233-1.25 3.125-1.203 1.964.104 3.287 1.159 4.627 2.482 1.417 4.285.825 16.051.859 21.236q.142 15.45.062 30.899c-.011 4.802.267 11.161-.537 15.869-.128.755-1.503 1.98-2.261 2.284-2.453.988-3.734.487-5.956-.33-2.22-3.694-1.585-9.183-1.573-13.466l.058-17.096c-.013-5.778.005-10.717.326-16.492-5.097 12.427-12.57 25.228-18.194 37.56-2.35 5.156-4.574 13.01-11.54 9.578-3.164-4.49-6.056-11.39-8.695-16.488a1099 1099 0 0 1-8.827-17.235c-2.118-4.138-4.385-8.286-6.19-12.564q.105.924.188 1.847c.532 6.021.21 14.73.28 21.016l.141 13.054c.01 2.157.045 4.227-.068 6.425.038 4.686-6.569 6.312-9.125 3.072-1.99-2.522-1.392-10.951-1.39-14.178l.013-17.137c.008-11.687-.432-25.408.165-36.845 1.334-2.234 2.064-2.782 4.517-3.54"/><mask id="a" width="79" height="74" x="188" y="22" maskUnits="userSpaceOnUse" style="mask-type:luminance"><path fill="#fff" d="M188.357 22.99h77.752v72.8h-77.752z"/></mask><g mask="url(#a)"><mask id="b" width="78" height="73" x="188" y="23" maskUnits="userSpaceOnUse" style="mask-type:luminance"><path fill="#fff" d="M207.309 23.075c.231.122.48.225.627.466 2.89 4.756-.605 4.848-3.172 7.552-5.935 6.252-9.986 14.119-10.084 22.87-.144 12.812 10.565 25.256 23.805 25.01 7.802-.105 12.175-2.532 17.535-7.913-9.118 1.366-15.967-.156-23.637-5.22-1.029-.68-4.295-3.59-4.543-4.849l.347-.252c.744.026 4.754 1.984 7.297 2.46a22.4 22.4 0 0 0 16.947-3.61c2.697-1.852 5.522-5.076 5.988-8.38 1.01-7.14-7.14-11.723-12.12-15.106-3.326-2.26-6.642-4.264-10.139-6.303-1.895-1.168-4.213-1.974-5.732-3.625-.629-.681.004-2.322.582-2.157 5.015 1.44 9.922 4.086 14.867 5.972 4.663 1.777 9.315 3.635 13.95 5.482 3.103 1.21 4.461 2.889 6.412 5.288 7.396 9.102 9.052 20.511 1.904 30.375-5.211 7.19-12.421 12.055-21.474 13.46-7.771 1.205-16.474-.76-22.895-5.385-2.306-1.514-4.333-3.325-6.436-5.107l-.259.104.077.186c5.102 7.216 15.561 13.802 24.058 15.031 6.314.545 13.373-.11 19.019-2.957 19.928-10.034 25.899-35.656 10.579-52.438-.997-1.095-2.084-1.723-2.746-3.111-.035-1.05 1.176-4.105 2.113-4.467 2.447.603 7.905 6.763 9.308 8.963 19.089 29.967-6.748 66.535-41.442 58.887-13.92-3.027-26.283-14.567-28.828-28.875-3.223-18.13 2.757-32.618 18.092-42.35"/></mask><g mask="url(#b)"><path fill="#221e1e" d="M185.993 23.075v78.874h92.583V23.075z"/></g></g><path fill="#221e1e" d="M298.653 77.34c1.016-4.196 2.811-8.77 4.325-12.847q3.59-9.708 7.375-19.344c2.459-6.389 4.761-13.051 7.451-19.333.448-.842 1.577-3.353 2.58-3.605 13.745-3.438 4.07 15.104 3.011 17.886-6.936 17.02-12.848 34.708-20.147 51.583-1.686 3.897-4.815 3.506-8.166 2.273a25 25 0 0 1-1.53-2.979c-4.419-10.297-8.149-20.943-12.221-31.324a1110 1110 0 0 1-7.959-20.815c-.877-2.339-1.786-4.787-2.686-7.11-1.795-4.633-2.681-7.748 2.761-10.025 2.562-.088 4.462.556 5.599 3.045 1.478 3.228 2.578 6.669 3.799 10.008l5.597 14.89c2.507 6.725 4.98 13.462 7.657 20.123a70 70 0 0 1 2.554 7.573m50.298-55.557 18.816-.021c3.396-.002 6.821-.11 10.209.132 4.082.291 4.784 1.92 5.552 5.46-.4 1.34-.706 1.945-1.307 3.177-3.437 2.366-9.404 1.686-13.759 1.642l-19.137.014c-2.87.005-12.255.655-14.178-1.64-3.075-3.662-.875-8.708 4.389-8.742 2.858-.02 6.393-.045 9.415-.022M337.93 84.311c6.05-.479 12.999.043 19.142-.115 6.625-.172 13.43.06 20.054.074 2.657.01 5.45.739 5.961 3.726.621 3.528-.526 5.528-3.967 6.236-6.971.421-15.933.045-23.064.14-5.242.07-15.316.384-19.987-.407-3.673-3.404-3.515-8.425 1.861-9.654m3.045-30.917c4.274-.336 34.603-.665 36.728.36 1.02.489 1.996 1.596 2.379 2.661.659 1.839.006 3.573-.723 5.258-1.04.763-1.639.981-2.8 1.484-7.516.95-17.429-.308-25.181.237-3.456.244-9.71.379-12.613-1.456-2.22-3.624-1.781-6.737 2.21-8.544m-103.633-33.88c2.822-.142 5.917.818 7.45 3.35a5.8 5.8 0 0 1 .595 4.626c-.678 2.28-2.154 3.344-4.132 4.37-3.814.43-6.755-1.99-8.301-5.298.292-3.594.868-5.651 4.388-7.047"/><mask id="c" width="218" height="24" x="95" y="108" maskUnits="userSpaceOnUse" style="mask-type:luminance"><path fill="#fff" d="M95.82 108.379h216.83v22.99H95.82z"/></mask><g mask="url(#c)"><mask id="d" width="218" height="24" x="95" y="108" maskUnits="userSpaceOnUse" style="mask-type:luminance"><path fill="#fff" d="M95.846 128.138c20.54-16.59 57.113-22.97 90.633-18.003 8.546 1.266 18.428 4.569 26.569 6.592 28.906 7.18 70.77 12.264 97.131-.299l2.094.37c-19.074 16.741-68.383 16.771-97.54 10.055-18.225-4.197-31.448-10.175-52.126-11.208-26.306-1.315-46.559 3.075-66.76 12.493"/></mask><g mask="url(#d)"><path fill="#221e1e" d="M95.846 105.168v28.401h216.427v-28.401z"/></g></g></svg>