<svg xmlns="http://www.w3.org/2000/svg" width="347" height="156" fill="none" viewBox="0 0 347 156"><path fill="#221e1e" fill-rule="evenodd" d="M148.799 1.4c1.779-.44 3.654-.921 4.164-1.066.508-.146 2.034-.281 3.392-.3 1.575-.025 3.413.198 5.088.612 1.44.355 3.316.994 4.163 1.417.849.424 2.236 1.291 3.085 1.925.848.633 2.103 1.98 2.787 2.987.688 1.01 1.588 2.773 2.005 3.92.416 1.148.864 2.084.99 2.084s.32-.383.432-.85.534-1.615.943-2.547c.41-.933 1.289-2.428 1.959-3.321.669-.893 1.804-2.023 2.526-2.517a31 31 0 0 1 2.853-1.674c.847-.427 2.723-1.07 4.163-1.424 1.44-.356 3.522-.65 4.626-.646 1.103 0 3.599.352 5.551.785 1.952.432 4.796 1.207 6.321 1.723 1.527.516 4.302 1.708 6.168 2.65s4.432 2.425 5.706 3.29a60 60 0 0 1 4.472 3.438c1.188 1.022 4.934 4.571 8.326 7.885 3.392 3.318 7.069 6.722 8.172 7.565 1.105.846 2.906 2.082 4.01 2.749 1.104.664 2.976 1.594 4.164 2.066 1.186.47 2.992 1.007 4.009 1.193 1.298.237 2.355.24 3.547.018 1.026-.194 2.121-.66 2.775-1.183.592-.476 1.323-1.344 1.619-1.924.321-.633.536-1.742.534-2.758 0-1.029-.235-2.187-.593-2.935-.324-.68-1.19-1.782-1.924-2.452-.731-.668-2.026-1.532-2.875-1.918-.847-.387-2.375-.791-3.392-.902-1.274-.136-2.451-.044-3.777.296-1.062.275-1.996.497-2.082.497s.009-.312.207-.695c.2-.383 1.017-1.39 1.816-2.239.799-.85 2.198-1.927 3.108-2.397s2.416-1.06 3.349-1.31c.935-.25 2.634-.457 3.779-.46 1.144 0 2.809.145 3.701.33.89.183 2.867.94 4.394 1.681 1.906.927 3.358 1.912 4.629 3.144 1.02.986 2.288 2.416 2.819 3.182.527.766 1.388 2.224 1.909 3.243.521 1.02 1.165 2.548 1.431 3.398.265.85.688 2.585.938 3.86.25 1.273.455 3.846.455 5.715s-.205 4.439-.455 5.714c-.25 1.273-.673 3.012-.935 3.861s-.96 2.518-1.549 3.707c-.585 1.19-1.807 3.135-2.71 4.324-.904 1.19-2.603 2.969-3.779 3.954-1.174.988-3.385 2.397-4.912 3.135s-3.957 1.653-5.397 2.033c-2.059.54-3.775.72-8.018.837-3.21.086-6.584 0-8.327-.216-1.61-.198-4.595-.692-6.63-1.097s-5.366-1.242-7.402-1.856c-2.035-.615-5.505-1.83-7.709-2.697-2.205-.868-6.508-2.842-9.561-4.386s-7.355-3.883-9.56-5.198-5.537-3.528-7.402-4.912-4.79-3.916-6.498-5.63c-1.709-1.715-3.843-4.161-4.74-5.434-.898-1.276-2.143-3.36-2.769-4.633-.627-1.276-1.406-3.259-1.736-4.408-.33-1.152-.673-2.094-.757-2.09-.082 0-.398.836-.694 1.859-.295 1.022-.965 2.798-1.483 3.944-.521 1.146-1.732 3.262-2.698 4.701-.965 1.44-3.213 4.093-4.993 5.9-1.779 1.807-4.555 4.26-6.168 5.451-1.613 1.196-4.805 3.324-7.093 4.736s-6.8 3.907-10.023 5.544-7.664 3.685-9.869 4.553c-2.205.865-5.674 2.079-7.71 2.697s-5.365 1.454-7.401 1.859-5.018.899-6.631 1.096c-1.742.217-5.116.303-8.326.217-4.207-.118-5.974-.3-8.019-.828-1.44-.377-3.87-1.291-5.397-2.033-1.526-.744-3.737-2.159-4.912-3.144s-2.884-2.764-3.794-3.954c-.912-1.189-2.202-3.274-2.868-4.633-.663-1.359-1.508-3.583-1.875-4.942-.487-1.798-.71-3.691-.814-6.95-.111-3.45-.025-5.08.38-7.104.29-1.446.94-3.67 1.446-4.942.505-1.276 1.424-3.15 2.041-4.17s2.067-2.792 3.217-3.938c1.62-1.616 2.732-2.39 4.944-3.45 1.57-.748 3.58-1.514 4.471-1.7.892-.181 2.557-.33 3.701-.33 1.144.003 2.847.21 3.778.46s2.439.84 3.349 1.31 2.31 1.548 3.109 2.397c.799.85 1.616 1.856 1.816 2.24.198.382.29.694.207.694s-1.021-.222-2.082-.497c-1.326-.34-2.504-.432-3.778-.296-1.017.11-2.544.518-3.392.908-.848.386-2.079 1.18-2.733 1.763-.653.581-1.443 1.474-1.751 1.983-.312.51-.7 1.551-.867 2.317-.222 1.029-.19 1.791.124 2.934.234.85.814 1.94 1.286 2.422.471.482 1.1 1 1.397 1.158.296.155 1.2.414 2.004.578.953.191 2.165.185 3.47-.022 1.104-.173 2.976-.704 4.163-1.18 1.187-.475 3.13-1.455 4.318-2.177 1.187-.723 3.13-2.094 4.317-3.043 1.188-.951 5.145-4.655 8.79-8.228 3.647-3.57 7.95-7.484 9.56-8.692 1.613-1.211 4.179-2.904 5.706-3.765 1.525-.862 4.162-2.122 5.859-2.805 1.695-.683 4.543-1.603 6.322-2.042m7.941 2.665c-.212.022-.733.096-1.156.164-.426.064-1.743.346-2.93.624-1.188.274-3.06.867-4.164 1.312s-2.976 1.356-4.163 2.023c-1.188.665-3.543 2.258-5.24 3.54-1.693 1.282-5.301 4.491-8.018 7.126a875 875 0 0 1-6.787 6.54c-1.019.957-2.894 2.61-4.164 3.675-1.274 1.065-3.423 2.665-4.78 3.558-1.357.89-3.439 2.063-4.626 2.604s-2.992 1.254-4.009 1.581c-1.018.328-3.168.677-4.781.776-2.208.136-3.423.052-4.934-.337-1.104-.284-2.905-1.01-4.009-1.612s-2.384-1.465-2.85-1.915c-.465-.451-.916-.717-1.002-.59-.086.126.293.66.845 1.183.552.525 2.042 1.566 3.315 2.313 1.4.825 3.134 1.548 4.395 1.829 1.144.256 2.847.466 3.778.466s2.701-.213 3.932-.472c1.23-.26 2.964-.748 3.855-1.082.891-.333 2.624-1.111 3.855-1.73 1.231-.617 2.858-1.544 3.624-2.056.765-.516 2.704-1.99 4.317-3.278s5.915-5.26 9.564-8.83c3.648-3.568 7.74-7.392 9.097-8.495 1.355-1.105 3.646-2.743 5.086-3.641 1.44-.9 3.661-2.064 4.934-2.589 1.271-.528 3.46-1.25 4.863-1.612s2.548-.76 2.544-.887c-.002-.126-.178-.213-.391-.188m36.074.111c-1.009-.139-1.422-.099-1.312.13.09.185.962.488 1.938.68.974.188 2.744.688 3.931 1.111 1.188.42 3.34 1.406 4.781 2.187 1.44.782 3.941 2.419 5.551 3.639 1.609 1.22 6.261 5.458 10.331 9.418 4.071 3.962 8.444 8.03 9.715 9.04 1.27 1.007 3.074 2.351 4.009 2.984s2.458 1.56 3.392 2.06c.935.5 2.667 1.28 3.855 1.733 1.187.454 3.164 1.038 4.395 1.298 1.231.256 3.035.466 4.009.466.974-.003 2.674-.22 3.777-.479 1.105-.262 2.906-.982 4.01-1.606 1.104-.62 2.531-1.622 3.177-2.224.641-.6 1.162-1.198 1.156-1.325-.009-.127-.676.272-1.481.887-.804.614-2.125 1.448-2.929 1.853-.805.404-2.332.96-3.392 1.239-1.419.367-2.702.457-4.858.336-2.004-.111-3.71-.426-5.396-.994-1.358-.458-3.508-1.375-4.782-2.042-1.272-.664-3.518-2.076-4.989-3.135-1.471-1.06-3.969-3.095-5.55-4.522-1.583-1.427-5.096-4.763-7.81-7.413s-6.115-5.767-7.556-6.922c-1.44-1.159-3.731-2.78-5.088-3.608s-3.439-1.921-4.625-2.428a39 39 0 0 0-4.473-1.541c-1.273-.34-2.976-.708-3.786-.822M154.428 7.75c-.466.012-1.959.404-3.317.874-1.356.47-3.231 1.242-4.163 1.72-.931.48-2.667 1.594-3.855 2.475-1.187.883-2.991 2.498-4.009 3.592-1.017 1.093-3.879 4.695-6.359 8.006-2.479 3.308-5.749 7.404-7.262 9.103-1.515 1.699-4.136 4.24-5.824 5.65-1.686 1.408-4.11 3.1-5.381 3.761-1.273.658-3.562 1.582-5.088 2.048-2.541.776-3.22.85-8.019.871-4.647.022-5.47-.052-7.247-.66-1.104-.378-2.593-1.106-3.315-1.622s-1.416-.94-1.542-.945c-.126-.007.29.481.925 1.08s1.955 1.452 2.93 1.894c.974.442 2.778.998 4.01 1.235 1.23.238 3.45.433 4.933.433 1.484 0 3.809-.198 5.166-.436 1.357-.237 3.368-.738 4.472-1.112 1.104-.373 2.905-1.14 4.009-1.705 1.104-.562 3.114-1.918 4.472-3.014 1.356-1.094 3.707-3.293 5.221-4.887 1.518-1.597 3.741-4.151 4.947-5.68 1.205-1.53 2.782-3.614 3.503-4.633.724-1.02 2.141-3 3.152-4.402 1.008-1.402 2.841-3.608 4.07-4.905 1.231-1.294 3.069-2.95 4.086-3.675 1.019-.73 2.823-1.81 4.011-2.407 1.186-.593 3.095-1.371 4.239-1.726 1.144-.356 2.082-.717 2.082-.8s-.382-.146-.847-.133m40.091-.022c-.214 0-.385.14-.385.31s.589.44 1.31.604 2.492.872 3.932 1.573c1.44.7 3.454 1.868 4.471 2.594 1.019.726 2.946 2.487 4.281 3.91 1.339 1.425 3.695 4.4 5.237 6.608a177 177 0 0 0 5.776 7.722c1.635 2.038 4.345 5.028 6.02 6.644 1.678 1.615 3.883 3.555 4.9 4.309 1.019.753 2.962 1.893 4.318 2.53 1.357.639 3.577 1.457 4.935 1.819 1.399.373 3.934.735 5.859.834 2.106.108 4.33.027 5.86-.217 1.356-.213 3.365-.756 4.462-1.204 1.11-.454 2.514-1.328 3.161-1.974.641-.636 1.098-1.158 1.012-1.158s-.744.407-1.465.908c-.722.5-2.144 1.22-3.161 1.606-1.65.62-2.416.695-7.094.704-4.12.006-5.671-.111-7.247-.55a47 47 0 0 1-4.01-1.359c-1.103-.441-2.765-1.257-3.7-1.816-.934-.556-3.007-2.162-4.611-3.574-1.603-1.408-4.08-3.88-5.501-5.495-1.425-1.615-4.614-5.643-7.087-8.957-2.474-3.314-5.548-7.077-6.835-8.365-1.282-1.285-3.167-2.9-4.184-3.586s-2.544-1.597-3.392-2.026c-.849-.432-2.653-1.146-4.01-1.59-1.357-.442-2.639-.807-2.852-.804m-38.806 2.496c-1.175.012-2.766.256-3.54.54-.771.285-2.02.884-2.776 1.332-.752.448-2.001 1.492-2.775 2.316-.774.825-1.906 2.407-2.517 3.51s-1.764 3.607-2.563 5.56c-.795 1.951-1.779 4.212-2.183 5.018-.407.807-1.187 1.974-1.74 2.595-.552.618-1.736 1.557-2.63 2.085-.898.525-1.592 1.004-1.542 1.06.046.052.78-.115 1.628-.371.972-.297 2.156-1.023 3.198-1.956 1.31-1.173 1.962-2.125 3.13-4.57l1.536-3.218.076-.159.025-.05 1.682-3.524c1.418-2.971 2.226-4.253 3.513-5.56.949-.966 2.457-2.081 3.506-2.588 1.012-.488 2.739-1.078 3.843-1.313s2.063-.494 2.134-.58c.071-.084-.833-.143-2.005-.127m37.661.025c-1.347-.078-2.389-.05-2.312.058s1.042.39 2.146.624c1.104.235 2.822.825 3.822 1.313 1.149.565 2.476 1.597 3.623 2.82 1.069 1.143 2.291 2.907 2.998 4.324.653 1.316 1.72 3.645 2.368 5.174.651 1.53 1.586 3.475 2.075 4.325.494.849 1.404 2.078 2.027 2.727.619.652 1.616 1.436 2.208 1.739.591.306 1.529.642 2.081.747.553.105 1.003.12 1.003.037s-.728-.55-1.619-1.034c-.892-.488-2.07-1.39-2.622-2.008-.552-.62-1.403-1.927-1.893-2.903-.491-.977-1.537-3.376-2.322-5.329-.787-1.952-1.965-4.457-2.619-5.56-.657-1.102-1.902-2.668-2.769-3.474-.867-.807-2.514-1.912-3.658-2.453-1.638-.775-2.606-1.016-4.537-1.127m-31.237 1.8c-.126 0-1.125.523-2.221 1.159-1.094.64-3.037 2.202-4.32 3.478-1.28 1.272-3.025 3.357-3.873 4.633-.908 1.362-2.03 3.654-2.721 5.56a180 180 0 0 1-2.257 5.869c-.596 1.445-1.142 2.87-1.212 3.166-.067.296-.021.543.104.543.127.003.741-.865 1.363-1.93a51 51 0 0 0 2.043-3.942 201 201 0 0 0 1.881-4.324c.533-1.273 1.418-3.03 1.968-3.904.548-.874 2.071-2.854 3.386-4.402 1.313-1.547 3.216-3.404 4.225-4.126s1.841-1.418 1.85-1.545a.22.22 0 0 0-.216-.235m24.98.303c-.213.006-.391.043-.398.087-.006.043.793.716 1.773 1.5.985.782 2.77 2.59 3.97 4.016 1.203 1.424 2.655 3.287 3.228 4.136s1.882 3.49 2.906 5.869c1.026 2.378 2.452 5.331 3.173 6.564.719 1.232 1.447 2.31 1.616 2.393.17.084.309.016.309-.154s-.337-.97-.746-1.776c-.414-.806-1.401-3.274-2.196-5.483s-1.858-4.85-2.359-5.868c-.5-1.02-1.488-2.62-2.193-3.553-.707-.932-2.119-2.523-3.14-3.527-1.021-1.007-2.689-2.366-3.707-3.02-1.018-.656-2.023-1.187-2.236-1.184m-32.723.627c-.146 0-1.142.59-2.216 1.313-1.069.723-2.491 1.937-3.16 2.703-.667.766-1.613 2.085-2.1 2.934-.491.85-1.24 2.656-1.666 4.015l-.734 2.331-.53 1.685c-.269.85-.817 2.24-1.218 3.089s-1.533 2.329-2.517 3.29c-1.095 1.068-2.559 2.1-3.79 2.665-1.105.506-2.282 1.032-2.621 1.161-.339.133-.722.22-.848.192-.127-.028-.232.09-.232.26s.173.308.386.308c.212 0 .872-.136 1.464-.303.593-.166 1.191-.203 1.324-.077.136.124-1.324 1.65-3.238 3.389-1.916 1.742-4.543 3.966-5.842 4.942-1.298.979-3.416 2.3-4.703 2.937-1.288.636-3.559 1.489-5.042 1.89-1.483.405-4.225.909-6.091 1.119-2.051.231-5.406.32-8.481.228-3.22-.096-5.711-.327-6.784-.63a53 53 0 0 1-2.313-.698c-.552-.198-.568-.17-.155.263.256.268 1.296.763 2.313 1.102s2.822.785 4.01.989c1.443.25 4.255.318 8.48.21 5.03-.127 6.794-.288 8.636-.788 1.273-.346 2.867-.828 3.546-1.072s1.928-.794 2.775-1.22c.849-.426 2.653-1.618 4.009-2.65 1.358-1.032 3.578-2.965 4.935-4.293a178 178 0 0 0 4.627-4.73c1.186-1.272 2.781-2.742 3.545-3.267.766-.522 1.839-1.492 2.391-2.156a19.4 19.4 0 0 0 1.752-2.598c.416-.766 1.23-3.058 1.809-5.097.58-2.038 1.426-4.472 1.876-5.405.453-.933 1.443-2.499 2.201-3.475.762-.976 2.067-2.298 2.906-2.934s1.533-1.264 1.542-1.39c.009-.127-.102-.232-.246-.232m39.74.003c-.278.01-.093.278.462.674.509.361 1.758 1.51 2.775 2.548 1.027 1.05 2.351 2.848 2.976 4.043.62 1.183 1.635 3.892 2.258 6.014.623 2.125 1.597 4.695 2.165 5.714.571 1.02 1.566 2.354 2.217 2.962.648.612 1.66 1.446 2.245 1.854.587.41 1.761 1.51 2.612 2.443s2.869 3.005 4.484 4.605c1.616 1.597 4.05 3.732 5.406 4.745 1.358 1.013 3.44 2.329 4.627 2.928 1.188.596 3.479 1.433 5.088 1.86 2.548.673 3.775.793 9.406.923 5.339.124 6.936.059 9.098-.38 1.44-.293 3.248-.781 4.009-1.087s1.422-.71 1.465-.896c.056-.25-.154-.25-.771-.01-.465.186-1.853.532-3.084.773-1.342.263-4.113.435-6.939.432-2.587-.003-6.158-.203-7.942-.447-1.782-.244-4.277-.739-5.55-1.1-1.271-.358-3.146-1.047-4.163-1.532-1.019-.485-2.985-1.69-4.37-2.681s-4.194-3.296-6.246-5.121c-2.047-1.826-3.658-3.46-3.571-3.63.102-.204.546-.207 1.31-.006.636.164 1.33.303 1.543.309.213.003.386-.133.386-.303s-.105-.287-.232-.26c-.127.029-.509-.055-.848-.181-.339-.13-1.588-.695-2.776-1.26-1.233-.588-2.819-1.675-3.7-2.54-.848-.834-1.913-2.199-2.368-3.039-.455-.837-1.265-3.052-1.808-4.92-.54-1.87-1.437-4.371-1.996-5.56-.641-1.372-1.674-2.845-2.819-4.028-.992-1.026-2.498-2.314-3.345-2.863-.848-.55-1.749-.992-2.004-.983M91.36 14.236c-.213.01-1.08.21-1.928.445-.848.232-2.097.819-2.775 1.304-.679.485-1.68 1.64-2.227 2.566-.583.986-1.147 2.52-1.357 3.695-.206 1.149-.286 3.129-.185 4.633.096 1.445.395 3.632.66 4.865.269 1.232.592 2.239.719 2.239.126 0 .234-2.675.237-5.946.006-5.359.074-6.113.676-7.645.367-.933 1.205-2.254 1.865-2.934.694-.713 1.937-1.529 2.949-1.93.965-.384 1.751-.835 1.751-1.004s-.172-.3-.385-.288m166.861.143c-.629-.106-1.15-.08-1.163.052-.012.136.781.615 1.759 1.063s2.25 1.281 2.83 1.853c.58.571 1.299 1.593 1.598 2.273s.709 2.209.913 3.398c.219 1.276.324 3.969.253 6.567-.096 3.567-.043 4.302.265 3.86.21-.3.555-1.516.764-2.705.214-1.19.386-3.552.389-5.251 0-1.999-.178-3.688-.512-4.788-.28-.933-.981-2.323-1.554-3.089-.672-.892-1.643-1.686-2.723-2.217-.925-.454-2.193-.912-2.819-1.016M96.14 16.399c-1.314.009-3.013.219-3.778.466-.765.244-1.838.79-2.39 1.214s-1.307 1.359-1.678 2.082c-.511.994-.672 1.837-.663 3.475.01 1.603.204 2.585.753 3.796.407.899.845 1.628.971 1.621.127-.006.151-.324.05-.707-.099-.383-.26-1.807-.355-3.166-.151-2.113-.08-2.684.487-3.938.506-1.119 1.015-1.668 2.131-2.302.805-.46 2.298-1.013 3.316-1.226s2.439-.395 3.16-.398c.722-.006 1.311-.151 1.311-.321s-.206-.38-.462-.464c-.256-.083-1.54-.145-2.853-.133m86.052.824c-.49-.47-.987-.784-1.108-.695-.116.087.498 1.375 1.364 2.86.863 1.486 2.551 5.066 3.744 7.954s2.307 5.39 2.47 5.56c.194.2.223-.235.077-1.236a37 37 0 0 0-.663-3.243c-.24-.933-.808-2.672-1.261-3.86-.453-1.19-1.477-3.136-2.279-4.325-.799-1.19-1.853-2.545-2.344-3.015m70.229-.825c-1.271.016-2.514.096-2.761.183-.247.086-.419.284-.385.438.034.158.65.29 1.372.297.721.003 2.143.188 3.161.41 1.018.22 2.267.619 2.776.884.508.263 1.313.877 1.791 1.362.476.485 1.012 1.44 1.191 2.12.182.679.252 2.208.163 3.397-.093 1.189-.246 2.406-.345 2.703s-.04.54.129.54c.17 0 .598-.66.956-1.467.445-1.01.652-2.14.664-3.63.015-1.627-.146-2.486-.645-3.474-.367-.723-1.116-1.66-1.669-2.08-.551-.422-1.695-.981-2.544-1.24-.855-.26-2.571-.461-3.854-.443m-85.088.288c-.153 0-.674.45-1.162 1.004-.485.552-1.361 1.698-1.94 2.548-.582.85-1.446 2.412-1.924 3.475-.475 1.062-1.21 3.286-1.632 4.942s-.771 3.36-.777 3.784c-.003.485.099.657.275.463.154-.17.91-1.909 1.681-3.861.767-1.952 1.914-4.664 2.546-6.023.635-1.36 1.617-3.237 2.181-4.17s1.03-1.804 1.03-1.93c0-.127-.126-.232-.278-.232m-6.896 1.93c-.055-.367-.339-.099-.894.85-.444.766-1.106 2.295-1.468 3.397-.36 1.103-.785 2.842-.946 3.861s-.611 2.966-.999 4.325c-.389 1.359-1.329 3.567-2.091 4.905-.762 1.34-2.496 3.762-3.852 5.387-1.358 1.624-3.301 3.641-4.318 4.485-1.017.84-2.612 1.955-3.547 2.474-.931.515-1.523.982-1.31 1.034.213.05 1.323-.336 2.466-.861 1.145-.522 2.637-1.381 3.317-1.903.678-.525 1.973-1.659 2.876-2.524.905-.861 2.302-2.403 3.106-3.422.802-1.02 1.878-2.548 2.39-3.398s1.295-2.45 1.739-3.552c.475-1.183 1.067-3.722 1.44-6.177.346-2.295.818-4.794 1.049-5.56.229-.766.577-1.702.771-2.085s.315-.94.271-1.236m28.05-.386c-.118 0-.214.21-.214.463 0 .254.189.847.421 1.313.227.467.635 1.755.903 2.857s.653 3.26.854 4.788c.204 1.529.644 3.685.987 4.788.339 1.102 1.03 2.773 1.536 3.706a37 37 0 0 0 2.032 3.243c.611.85 1.949 2.431 2.973 3.513 1.024 1.08 2.621 2.56 3.556 3.289s2.633 1.755 3.777 2.283c1.145.525 2.187.864 2.314.756s.093-.244-.078-.3-1.208-.679-2.313-1.38c-1.104-.704-3.185-2.486-4.626-3.96-1.44-1.473-3.34-3.716-4.215-4.985-.876-1.267-2.091-3.382-2.699-4.698-.712-1.548-1.381-3.787-1.893-6.332-.432-2.165-1.019-4.562-1.302-5.328a34 34 0 0 0-1.156-2.703c-.355-.723-.741-1.313-.857-1.313m82.178 6.406c-.478-.809-.959-1.399-1.073-1.312-.117.086.061.747.395 1.47.33.723.888 2.425 1.236 3.784.428 1.674.632 3.444.63 5.482 0 1.656-.198 4.019-.432 5.251a40 40 0 0 1-1.167 4.402c-.403 1.189-1.39 3.1-2.192 4.247s-2.254 2.718-3.228 3.487c-.975.772-3.082 2.06-4.682 2.857-1.884.942-2.698 1.492-2.313 1.557.327.056 1.567-.281 2.754-.747 1.188-.47 2.92-1.298 3.855-1.844.934-.544 2.587-1.947 3.679-3.11 1.138-1.218 2.35-2.914 2.846-3.976.475-1.02 1.148-2.965 1.493-4.324.349-1.36.691-3.66.759-5.116.068-1.451-.009-3.607-.173-4.787-.166-1.18-.577-2.978-.912-3.997-.334-1.02-1.001-2.514-1.475-3.324m-191.653-1c-.062-.17-.337.04-.61.463-.275.426-.843 1.538-1.256 2.471-.416.933-.978 2.777-1.25 4.093-.274 1.315-.496 3.332-.496 4.478s.204 3.197.45 4.556c.247 1.36.611 3.027.806 3.707.197.68.758 2.035 1.245 3.011.49.977 1.758 2.694 2.82 3.815 1.06 1.125 2.691 2.496 3.623 3.052.934.553 2.668 1.384 3.855 1.844s2.418.79 2.735.735c.358-.062-.697-.744-2.775-1.791-2.686-1.356-3.781-2.123-5.511-3.861-1.373-1.381-2.526-2.904-3.161-4.18-.552-1.102-1.296-3.12-1.656-4.478-.41-1.551-.713-3.852-.812-6.178-.123-2.866-.037-4.266.386-6.178.3-1.359.808-3.095 1.132-3.86.32-.767.536-1.53.475-1.7m1.434.463c-.195 0-.543.66-.771 1.467-.25.884-.41 2.944-.401 5.174.012 2.533.188 4.343.561 5.714.3 1.103 1.018 2.98 1.6 4.17.58 1.19 1.395 2.58 1.814 3.089.416.51.833.855.919.772.09-.083-.33-1.334-.934-2.78-.602-1.445-1.373-3.805-1.715-5.251-.34-1.446-.713-4.015-.823-5.714-.115-1.699-.136-3.889-.053-4.865.105-1.217.043-1.776-.197-1.776m87.701 3.793c-.073-.216-1.112.578-2.423 1.853-1.29 1.251-3.189 3.586-4.324 5.32-1.116 1.698-2.652 3.783-3.411 4.632-.762.85-2.464 2.379-3.781 3.398-1.316 1.02-2.242 1.887-2.051 1.93.189.044 1.141-.336 2.116-.843.974-.506 2.676-1.658 3.777-2.557 1.268-1.035 2.573-2.505 3.547-4 .849-1.3 2.054-3.172 2.683-4.16a39 39 0 0 1 2.57-3.497c.786-.933 1.368-1.87 1.297-2.076m12.321-.395c-.135 0-.083.311.12.695s.956 1.39 1.675 2.239c.721.85 2.215 3.005 3.325 4.788 1.107 1.782 2.615 3.922 3.352 4.753.737.828 2.448 2.243 3.806 3.142 1.356.895 2.883 1.73 3.392 1.85.589.139.814.111.617-.074-.17-.161-1.21-.998-2.314-1.857-1.101-.862-2.639-2.242-3.413-3.067-.778-.828-2.372-2.96-3.547-4.738-1.218-1.841-3.133-4.201-4.45-5.48-1.271-1.238-2.424-2.251-2.563-2.251m87.834.101c-.196-.061-.317 1.724-.33 4.921-.021 4.398-.119 5.378-.823 7.95-.44 1.616-1.23 3.908-1.755 5.097-.523 1.19-.876 2.233-.783 2.317.096.083.515-.263.931-.773.42-.51 1.235-1.9 1.814-3.088.582-1.19 1.301-3.067 1.603-4.17.392-1.443.544-3.098.534-5.869-.009-2.508-.167-4.287-.447-5.072-.241-.667-.574-1.257-.744-1.313M138.714 45.412c-.185 0-1.079.602-1.989 1.334-.907.735-2.899 2.178-4.425 3.206a219 219 0 0 1-6.168 3.957c-1.866 1.149-4.432 2.613-5.706 3.252-1.27.637-3.074 1.313-4.009 1.502-.931.188-3.5.327-5.705.305-2.995-.024-4.79.13-7.093.615-1.697.355-3.883.683-4.858.729-1.55.071-1.705.133-1.233.494.407.31 1.19.362 3.161.207 1.44-.111 3.386-.349 4.317-.525 1.015-.195 3.368-.244 5.86-.123 2.446.117 4.864.067 5.86-.118.934-.173 2.806-.865 4.162-1.538 1.358-.674 4.343-2.456 6.632-3.96 2.288-1.507 5.205-3.586 6.475-4.62 1.274-1.039 2.93-2.521 3.686-3.3.753-.781 1.219-1.417 1.033-1.417m71.687.305c-.213-.003.241.637 1.002 1.418.762.785 2.498 2.298 3.856 3.364 1.356 1.062 4.203 3.086 6.322 4.491 2.121 1.405 4.965 3.089 6.321 3.744 1.358.654 3.23 1.334 4.164 1.51 1.012.188 3.38.238 5.86.12 2.491-.12 4.844-.07 5.859.124.935.176 2.878.414 4.318.525 1.97.155 2.753.102 3.16-.207.473-.361.319-.423-1.233-.497-.974-.043-3.161-.361-4.857-.704-2.132-.43-4.61-.646-8.018-.708-3.902-.068-5.29-.21-6.63-.68-.935-.323-3.606-1.741-5.938-3.147-2.33-1.405-5.594-3.434-7.247-4.512-1.653-1.075-3.806-2.604-4.78-3.398-.975-.79-1.945-1.443-2.159-1.443m-89.158.312c-.221 0-.462.06-.533.133-.071.071-1.378.494-2.905.942-1.527.445-4.509 1.069-6.631 1.387-2.118.318-5.036.664-6.476.772s-3.87.056-5.397-.12c-1.526-.173-3.747-.602-4.934-.958-1.188-.352-2.193-.565-2.236-.472s.234.377.617.63c.382.25 1.736.825 3.007 1.272 1.273.445 3.63.961 5.242 1.143 2.44.275 3.599.235 6.939-.225 2.205-.306 5.052-.828 6.322-1.165a43 43 0 0 0 4.472-1.492c1.188-.487 2.331-1.102 2.542-1.365.305-.386.298-.482-.029-.482m106.12.007a.24.24 0 0 0-.241.225c-.005.127.932.673 2.082 1.214s3.062 1.266 4.25 1.612c1.187.346 3.478.871 5.089 1.162 1.767.32 4.459.528 6.784.525 2.726-.003 4.441-.164 5.859-.553 1.105-.303 2.7-.856 3.547-1.23.848-.37 1.681-.87 1.851-1.111.249-.356.166-.393-.463-.204-.422.126-1.811.519-3.084.868-1.798.497-3.275.642-6.631.66-2.692.016-5.652-.182-7.863-.521-1.953-.3-4.38-.736-5.397-.97a49 49 0 0 1-3.701-1.047c-1.018-.343-1.955-.624-2.082-.63m28.425 62.156c.324-.807.811-1.99 1.083-2.626l.49-1.158h3.852c2.118 0 3.851.105 3.849.231-.004.127-.904 1.31-4.007 5.02h-5.859zm56.126 12.664c2.359-6.923 4.441-12.97 4.619-13.437.182-.466.438-.849.568-.852.132 0 1.764.618 3.629 1.371 1.866.757 3.372 1.489 3.34 1.625-.027.139-2.643 5.81-5.813 12.605-3.167 6.795-5.884 12.495-6.036 12.665-.178.2-1.023.015-4.598-1.391zM45.563 101.365c.043-.142 3.13-7.79 6.862-16.991 4.848-11.957 6.911-16.707 7.226-16.649.262.047 1.865 3.59 3.95 8.73 1.93 4.756 5.027 12.367 10.257 25.173l-7.488-.155-1.301-3.277-11.047.189-1.033 3.088-3.75.078c-2.063.043-3.716-.041-3.676-.186m14.183-17.652c-.142 0-.86 1.702-1.6 3.784-.738 2.081-1.391 3.956-1.45 4.17-.08.29.63.385 2.822.385 1.749 0 2.93-.123 2.93-.308 0-.17-.55-2.045-1.225-4.17-.672-2.122-1.338-3.861-1.477-3.861m154.279.154c3.513-8.664 6.448-15.858 6.523-15.984.076-.127.305-.229.508-.229.204.003 3.279 7.197 6.832 15.985l3.551 8.792.017.044c1.89 4.677 3.296 8.158 3.694 9.153h-7.401l-1.163-3.243-11.02-.189-1.238 3.277-7.551.155.432-1.004c.235-.553 3.303-8.093 6.816-16.757m7.309.463-.305-.772-.367.927c-.204.51-.846 2.246-1.428 3.861-.583 1.615-1.056 3.107-1.052 3.32.007.279.762.386 2.733.386 1.499 0 2.782-.064 2.852-.145.071-.08-.379-1.646-1-3.475-.619-1.831-1.267-3.675-1.433-4.102m49.282 17.298V67.96l.848.015c.724.016 2.041 1.415 17.193 19.157l.155-18.246h6.784v33.36l-1.027-.078c-.929-.071-1.841-.982-17.323-18.258l-.154 17.718zM85.423 70.218c1.188-.612 2.992-1.3 4.01-1.526 1.125-.253 2.935-.365 4.625-.284 1.527.074 3.504.349 4.395.614 1.412.42 1.604.572 1.49 1.177-.074.383-.222 1.668-.334 2.857-.11 1.19-.262 2.407-.333 2.703-.12.507-.234.497-1.748-.108-1.336-.534-2.104-.627-4.395-.528-2.362.105-3.022.26-4.435 1.035-.912.503-2.01 1.33-2.439 1.84s-1.135 1.693-1.573 2.626c-.657 1.409-.79 2.147-.786 4.324.003 2.067.154 2.953.706 4.17.386.85 1.04 1.996 1.453 2.549s1.273 1.33 1.909 1.73c.635.398 1.643.889 2.235 1.09.596.203 2.122.37 3.393.37 1.499 0 2.991-.22 4.24-.63 1.465-.479 1.959-.537 2.057-.244.071.213.284 1.705.469 3.32.271 2.336.262 2.981-.052 3.157-.216.124-1.33.436-2.474.695-1.144.26-3.158.47-4.472.47-1.313-.003-3.29-.22-4.394-.482-1.101-.263-2.834-.921-3.852-1.464-1.015-.54-2.615-1.752-3.556-2.684-.99-.983-2.134-2.549-2.71-3.707-.547-1.106-1.2-2.774-1.45-3.706-.247-.933-.454-2.95-.457-4.48-.003-1.528.204-3.58.46-4.555.253-.976.9-2.644 1.434-3.707.537-1.062 1.749-2.737 2.698-3.719 1.061-1.1 2.56-2.22 3.886-2.903m27.833-.053c1.061-.534 2.726-1.167 3.701-1.408s3.023-.445 4.549-.457 3.641.185 4.703.435c1.061.253 2.794.899 3.855 1.433 1.06.538 2.704 1.752 3.654 2.703 1.009 1.01 2.184 2.632 2.822 3.892.601 1.19 1.316 3.24 1.589 4.556.271 1.316.489 3.123.487 4.015-.003.893-.214 2.595-.469 3.784-.257 1.19-.913 3.064-1.462 4.17-.604 1.226-1.773 2.799-2.997 4.04-1.185 1.202-2.699 2.366-3.702 2.848-.931.448-2.528 1.029-3.546 1.288-1.027.266-3.155.476-4.78.476s-3.753-.21-4.781-.476c-1.017-.259-2.612-.84-3.545-1.291-.975-.47-2.561-1.68-3.729-2.848-1.41-1.408-2.341-2.69-3.047-4.191-.558-1.19-1.203-3.064-1.434-4.17-.229-1.106-.414-2.842-.414-3.861s.185-2.755.414-3.861c.231-1.106.851-2.947 1.384-4.093.636-1.374 1.622-2.755 2.893-4.05 1.169-1.189 2.689-2.347 3.855-2.934m8.404 4.927c-1.271 0-2.868.2-3.546.448-.679.247-1.768.83-2.422 1.3-.653.467-1.597 1.474-2.096 2.24s-1.129 2.156-1.398 3.088c-.317 1.106-.438 2.4-.345 3.707.086 1.204.45 2.687.91 3.707.419.932 1.276 2.22 1.9 2.857.626.636 1.727 1.46 2.448 1.828.913.467 2.063.714 3.777.806 1.358.075 3.023-.012 3.702-.194.678-.183 1.909-.788 2.735-1.347.827-.559 1.91-1.64 2.402-2.406.497-.766 1.065-1.946 1.265-2.626.204-.68.367-2.208.367-3.397 0-1.19-.163-2.718-.367-3.398-.2-.68-.771-1.86-1.27-2.625-.498-.766-1.44-1.773-2.095-2.24-.653-.47-1.742-1.053-2.421-1.3s-2.273-.448-3.546-.448m23.13 26.536v-33.36l1.002-.012c.922-.009 1.52.563 7.401 7.105 3.519 3.913 6.504 7.107 6.631 7.098.126-.013 3.077-3.213 6.553-7.114 5.811-6.52 6.403-7.092 8.327-7.076v33.359h-6.477l.011-8.726c.002-4.8-.1-8.84-.232-8.982-.132-.14-2.045 1.65-8.259 8.207l-3.933-4.207c-2.161-2.314-4.07-4.207-4.239-4.207-.198 0-.309 3.19-.309 17.915zM16.139 85.31c-.031-8.976.062-16.414.203-16.525.142-.115 1.623-.207 6.322-.207l.155 26.409 10.33.154v6.487H16.19zm20.58-11.481c.43-2.292.853-4.414.937-4.71.135-.47.57-.541 3.377-.541 1.77 0 3.216.105 3.21.231-.003.127-.753 2.317-3.315 9.498l-2.501.078c-1.376.043-2.498-.028-2.498-.155.003-.127.357-2.11.79-4.401m210.304-3.413c1.187-.578 2.853-1.218 3.701-1.418.848-.204 2.896-.38 4.55-.393 1.652-.015 3.977.18 7.324.9l-.143 1.003a94 94 0 0 0-.333 3.012c-.104 1.106-.246 2.18-.32 2.394-.099.296-.429.268-1.441-.124-.894-.35-2.334-.522-4.548-.54-2.866-.028-3.433.061-4.935.76-.932.435-2.183 1.269-2.778 1.852s-1.398 1.687-1.777 2.453c-.382.766-.811 2.224-.95 3.243-.141 1.032-.132 2.607.025 3.552.152.933.651 2.379 1.104 3.21.457.834 1.456 2.054 2.218 2.715.764.658 2.013 1.405 2.775 1.655.765.254 2.255.458 5.243.451v-9.884h6.784v14.209l-1.156.587c-.635.321-1.989.827-3.006 1.121-1.157.336-2.891.537-4.627.534-1.69-.003-3.497-.213-4.626-.537-1.017-.294-2.405-.813-3.084-1.156-.678-.34-1.927-1.133-2.776-1.76-.863-.64-2.173-2.088-2.978-3.287-.79-1.18-1.743-3.045-2.116-4.151s-.753-3.12-.845-4.479c-.095-1.42-.006-3.326.212-4.478.207-1.106.876-3.05 1.484-4.325.755-1.587 1.694-2.906 2.982-4.194 1.209-1.205 2.649-2.25 4.037-2.925M302.64 85.31c-.031-8.976.067-16.417.212-16.538.148-.117 1.663-.176 6.468-.04l.153 32.896h-6.784zm13.877 0c-.03-8.976.065-16.414.211-16.532.141-.117 3.879-.173 16.338-.046l.155 6.641h-9.87v6.486h8.636v6.487h-8.636v6.795h10.486v6.487h-17.27zm-134.411 16.318V68.887l7.478-.004c6.209-.003 7.742.084 9.021.516 1.037.352 2.05 1.035 3.09 2.091 1.253 1.27 1.687 2.005 2.286 3.883.576 1.813.703 2.752.585 4.324-.089 1.19-.465 2.7-.919 3.707-.422.933-1.193 2.187-1.711 2.78-.519.593-1.616 1.43-2.442 1.853-1.351.695-1.975.788-10.757 1.081l-.155 12.51zm10.014-26.255h-3.556l.086 3.63.087 3.629c4.455.145 6.038.024 6.784-.22.897-.29 1.384-.692 1.792-1.48.386-.753.512-1.503.411-2.47-.112-1.06-.375-1.594-1.096-2.24-.922-.821-1.063-.849-4.508-.849M45.178 144.562v-33.05h1.079c1.018 0 1.446.408 13.878 14.267l.802-.877c.437-.485 3.318-3.695 6.399-7.136 5.258-5.874 5.665-6.254 7.756-6.254v33.05h-6.785l.003-18.07-8.175 8.594-3.547-3.636c-1.949-1.998-3.72-3.897-3.932-4.22-.21-.321-.524-.512-.694-.428-.194.098-.308 3.397-.308 17.76zm103.158-31.268c1.018-.512 2.684-1.112 3.701-1.334 1.017-.219 2.822-.411 4.009-.426 1.187-.013 2.992.123 4.009.308 1.018.183 2.893.835 4.163 1.443 1.511.723 2.915 1.705 4.041 2.832 1.008 1.007 2.183 2.626 2.825 3.889.622 1.233 1.323 3.289 1.628 4.788.388 1.918.472 3.249.315 4.941-.118 1.277-.494 3.151-.833 4.171-.34 1.019-.98 2.478-1.422 3.243-.441.766-1.526 2.156-2.409 3.089-.928.985-2.43 2.124-3.567 2.709-1.08.556-2.726 1.216-3.661 1.464-.95.253-3.05.454-4.78.454-1.697 0-3.779-.185-4.626-.408-.848-.225-2.375-.79-3.393-1.263-1.064-.491-2.633-1.613-3.7-2.641a15.6 15.6 0 0 1-3.013-4.062c-.639-1.25-1.382-3.317-1.647-4.593-.348-1.649-.432-3.074-.293-4.942.107-1.443.512-3.527.894-4.633s1.246-2.829 1.915-3.836c.672-1.004 1.844-2.376 2.606-3.042.765-.671 2.22-1.638 3.238-2.151m80.792-.324c.674-.346 1.575-.745 2.004-.883.428-.139 2.1-.204 3.709-.146 1.613.059 3.704.346 4.651.643 1.703.531 1.718.547 1.635 1.661a77 77 0 0 1-.33 3.061c-.136 1.066-.389 1.937-.559 1.937-.169.003-.863-.191-1.541-.429-.679-.238-1.995-.538-2.93-.661-1.012-.136-2.131-.096-2.776.098-.592.184-1.319.687-1.619 1.118-.296.437-.54 1.348-.54 2.027 0 .945.204 1.434.867 2.085.478.467 1.552 1.112 2.391 1.43.838.319 2.426 1.044 3.527 1.606 1.119.574 2.705 1.752 3.583 2.663 1.206 1.251 1.713 2.076 2.132 3.49.45 1.526.493 2.181.237 3.707-.169 1.019-.57 2.409-.891 3.088-.32.681-1.138 1.786-1.819 2.457-.679.67-1.998 1.574-2.933 2.007-1.478.685-2.113.788-4.935.788-2.711 0-3.663-.139-5.86-.862-1.44-.473-2.828-.985-3.083-1.143-.405-.247-.41-.667-.05-3.463.225-1.747.469-3.215.541-3.258.07-.044.995.33 2.053.831 1.061.496 2.864 1.053 4.009 1.236 1.148.178 2.674.234 3.392.12.848-.133 1.613-.516 2.159-1.081.598-.615.848-1.193.848-1.956 0-.754-.255-1.355-.848-1.986-.471-.506-1.936-1.35-3.315-1.908-1.357-.551-3.022-1.341-3.7-1.755-.68-.414-1.765-1.26-2.416-1.878-.65-.614-1.477-1.677-1.838-2.357-.505-.96-.653-1.785-.653-3.706 0-1.816.163-2.84.623-3.861.342-.767 1.169-1.999 1.834-2.741.669-.743 1.768-1.633 2.441-1.979M30.374 144.562V112.13h6.477v32.432zm53.045 0V112.13l7.17.003c3.944 0 7.657.133 8.25.29.595.161 1.773.75 2.621 1.313 1.008.667 1.884 1.603 2.538 2.718.586.998 1.15 2.53 1.36 3.707.259 1.451.271 2.476.037 3.706-.179.933-.651 2.384-1.049 3.219-.4.837-1.356 2.088-2.127 2.779a8.2 8.2 0 0 1-3.239 1.798c-1.283.377-2.933.538-9.085.544v12.355zm28.372 0 .022-16.235.018-16.234 7.923.095c7.522.09 7.987.13 9.231.791.721.383 1.822 1.218 2.448 1.854.626.635 1.381 1.714 1.684 2.393.298.679.691 2.002.869 2.935.223 1.182.223 2.264-.002 3.552-.176 1.019-.731 2.583-1.234 3.474-.512.909-1.487 2.033-2.224 2.559-.718.512-1.449.932-1.619.929-.17 0-.484.099-.697.226-.283.163.632 2.056 3.321 6.866 2.045 3.654 3.711 6.674 3.708 6.718-.004.043-1.638.077-7.257.081l-6.476-12.349-3.239-.01v12.355zm79.262.615c-.732-.009-1.142-.927-7.414-16.528l-6.641-16.519 7.424-.016 2.365 5.952c1.305 3.275 2.76 7.101 3.238 8.504.482 1.402.974 2.548 1.104 2.548.127 0 .509-.868.848-1.931.343-1.062 1.764-4.883 5.706-15.054l3.777-.003c3.535 0 3.763.037 3.547.562-.09.218-1.595 3.928-3.711 9.144l-.039.096-.021.05-2.936 7.238c-6.141 15.132-6.52 15.966-7.247 15.957m19.117-.615V112.13h6.476v32.432zm40.092 0V112.13h16.345l-.155 6.332-9.714.155v6.486h8.635l-.154 6.332-8.481.154v6.487h10.176v6.486zm24.055 0V112.13h16.036v6.487h-9.56v6.486h8.326v6.486h-8.326v6.487h10.177v6.486zm29.165-4.787c.619-1.53 1.172-2.87 1.22-2.981.053-.111 1.685.433 3.624 1.214 1.941.778 3.55 1.6 3.572 1.822.025.225-.441 1.591-1.037 3.033-.592 1.446-1.218 2.626-1.388 2.626s-1.729-.565-3.469-1.26c-1.736-.692-3.268-1.35-3.404-1.468-.136-.114.262-1.458.882-2.986m-153.836-18.941c.867-.88 2.033-1.69 2.853-1.983.766-.272 2.427-.507 3.701-.522 1.304-.015 2.917.173 3.702.432.764.253 1.991.986 2.732 1.625.774.67 1.73 1.95 2.253 3.018a11.2 11.2 0 0 1 1.09 3.86c.138 1.539.03 2.516-.46 4.171-.469 1.578-1.003 2.567-1.97 3.66-.778.871-2.039 1.835-3.029 2.307-1.406.67-2.119.806-4.163.794-1.925-.013-2.835-.179-4.133-.763-.963-.432-2.19-1.331-2.915-2.137-.687-.766-1.532-2.014-1.88-2.78-.5-1.1-.63-2.005-.621-4.325.01-2.359.146-3.221.694-4.402.376-.806 1.342-2.136 2.146-2.955m-31.379-2.217h3.392c1.866 0 3.67.139 4.009.308.341.17.824.726 1.08 1.236s.463 1.414.463 2.007-.207 1.498-.463 2.008-.739 1.066-1.08 1.236c-.339.169-2.143.308-7.401.308zm-28.372 7.103v-7.103h3.392c3.313 0 3.417.021 4.395.902.907.815 1.002 1.068 1.002 2.649 0 1.582-.095 1.835-1.002 2.65-.978.881-1.082.902-7.787.902" clip-rule="evenodd"/></svg>