<svg xmlns="http://www.w3.org/2000/svg" width="451" height="156" fill="none" viewBox="0 0 451 156"><g clip-path="url(#a)"><path fill="#221e1e" fill-rule="evenodd" d="M415.236 0H451v156h-35.764v-10.927h22.527V10.927h-22.527zM0 .232h35.764V11.16H13.237v133.913h22.527V156H0zm198.329 34.641h59.684v12.555h-59.684zm-167.674.698h56.433v10.694h-21.83v76.954H53.53l.163-17.948c.116-9.88.255-27.248.534-59.238h-3.368c-1.858 0-7.152-.07-20.204-.349zm82.676 0h42.266l13.679 13.135v19.762l-1.324 1.558c-.72.837-3.808 4.417-12.355 14.367l8.918 19.251c4.924 10.578 8.895 19.319 8.825 19.412-.046.093-2.88.186-12.517.186l-17.418-38.128-20.204-.023.162 8.44c.116 4.626.256 13.205.534 29.711l-10.566-.023zm11.611 38.36 26.591-.023 6.851-8.695v-12.09l-7.896-6.393h-25.546zm157.688-38.36 11.263.023 33.442 62.098.116-62.121h11.844v87.648l-10.729-.116-33.976-62.075-.139 4.766c-.093 2.627-.21 16.135-.302 29.991-.093 13.88-.209 25.737-.372 27.434H282.63zm76.405.465h39.132l4.064 3.069c2.229 1.674 5.271 4.045 6.734 5.254 1.464 1.232 3.786 3.348 5.133 4.696 1.37 1.349 2.903 3.139 4.389 5.464v48.474l-2.531 3.324c-1.394 1.814-3.67 4.673-5.063 6.324-1.37 1.674-3.6 4.138-4.947 5.51-1.347 1.348-2.972 2.79-4.76 3.929l-42.151-.023zm11.147 74.861c24.083.023 25.058-.023 26.243-.418.697-.233 1.951-.768 2.787-1.186s1.927-1.046 2.438-1.395 1.44-1.162 2.067-1.79c.65-.628 1.463-1.79 1.858-2.65l.72-1.512.116-44.754c-1.393-2.673-2.299-3.929-3.135-4.766-.767-.767-2.137-1.836-3.019-2.371-.906-.535-2.462-1.279-3.484-1.65l-1.858-.698c-18.369-.744-23.92-.977-24.222-.977h-.511zM198.329 73.001h59.684v12.787h-59.684zm0 38.361h59.684v12.555h-59.684zm153.576 33.99c.442.07.604.442 1.905 5.278l.696-2.604c.604-2.279.767-2.604 1.208-2.651.395-.046.557.093.65.465.047.279.372 2.511.697 4.929.325 2.441.581 4.603.581 4.836 0 .279-.186.395-.581.395-.372 0-.627-.14-.673-.395-.07-.233-.233-1.511-.395-2.86-.163-1.325-.349-2.627-.418-2.836-.093-.279-.302.256-.581 1.395-.232.976-.511 1.976-.627 2.208s-.371.396-.557.396-.442-.163-.558-.396c-.093-.232-.394-1.162-.627-2.092s-.511-1.604-.58-1.511c-.07.093-.256 1.209-.418 2.487-.14 1.279-.325 2.628-.372 2.976-.093.488-.255.628-.697.628-.394 0-.58-.116-.58-.395 0-.233.279-2.511.604-5.068.325-2.558.65-4.767.696-4.953.07-.162.349-.255.627-.232m10.915 0c.488.07.511.186.627 4.022.07 2.185.186 4.115.279 4.301.093.209.534.535.999.767.557.279 1.022.349 1.44.233.325-.093.859-.465 1.161-.814.511-.604.534-.79.534-8.555h.581c.418 0 .627.162.719.534.07.279.093 2.139.047 4.115-.07 2.883-.163 3.767-.488 4.371-.209.419-.743.953-1.161 1.209-.464.302-1.161.465-1.904.465-.767 0-1.417-.14-1.928-.465-.395-.256-.929-.79-1.138-1.209-.325-.604-.441-1.488-.488-4.557-.046-2.069-.023-3.929.07-4.138.07-.186.349-.325.65-.279m14.144-.023c.627 0 1.463.163 1.857.372.418.209.883.558 1.022.767.163.186.232.488.186.651s-.325.279-.627.279c-.279 0-.697-.186-.952-.395-.256-.256-.79-.419-1.417-.419-.766 0-1.161.163-1.602.581-.349.326-.627.698-.627.814 0 .14.255.488.534.767.371.349.975.582 1.927.721.767.116 1.742.372 2.137.581.418.21.975.721 1.231 1.139.255.419.464 1.116.464 1.558 0 .465-.209 1.163-.464 1.581-.256.419-.883.953-1.394 1.209-.58.302-1.393.465-2.206.465-.72 0-1.602-.163-2.043-.372-.395-.209-.929-.535-1.162-.744s-.418-.558-.394-.79c0-.233.162-.465.348-.535.186-.047.627.139.975.442.372.279 1.069.604 1.58.72.719.14 1.161.07 2.02-.325.697-.302 1.208-.698 1.347-1.07a1.5 1.5 0 0 0 0-1.162c-.139-.326-.65-.767-1.231-1.023-.534-.256-1.324-.465-1.742-.465-.395 0-1.114-.186-1.579-.418-.464-.233-.998-.698-1.161-1.047-.186-.348-.325-.906-.325-1.232 0-.302.139-.86.325-1.209.163-.349.673-.814 1.091-1.046.442-.209 1.278-.395 1.882-.395m14.584-.023v.581c0 .534-.093.581-2.09.581v8.37h1.045c.952 0 1.045.069 1.045 1.162h-2.671c-1.927 0-2.694-.07-2.763-.279a2.4 2.4 0 0 1 0-.581c.069-.186.511-.302 2.183-.302v-8.37h-1.045c-.627 0-1.069-.093-1.138-.279a1.6 1.6 0 0 1 .023-.581c.069-.21.859-.302 5.411-.302m9.336 0c.604 0 1.463.186 1.858.395.418.209.952.534 1.184.744s.395.558.395.79c0 .233-.163.465-.349.512-.185.069-.743-.163-1.207-.512q-.837-.65-1.672-.628c-.465 0-1.138.21-1.51.465-.371.256-.882.861-1.138 1.372-.302.605-.464 1.418-.464 2.209-.023.93.139 1.581.557 2.325.325.581.906 1.209 1.37 1.464.534.279 1.045.396 1.51.303.371-.07.998-.396 1.393-.721.372-.326.836-.581.976-.581.162 0 .371.139.441.302s.023.535-.116.814c-.14.279-.674.72-1.185.976-.534.279-1.416.488-2.043.488-.767 0-1.347-.163-1.905-.534-.441-.279-1.114-1.047-1.509-1.674-.627-1.047-.697-1.302-.697-3.162 0-1.837.07-2.093.697-3.139.395-.628 1.068-1.395 1.509-1.674.535-.372 1.138-.534 1.905-.534m-105.946 1.162h49.466v1.86h-49.466zm0 6.277h49.466v1.628h-49.466z" clip-rule="evenodd"/></g><defs><clipPath id="a"><path fill="#fff" d="M0 0h451v156H0z"/></clipPath></defs></svg>