<svg xmlns="http://www.w3.org/2000/svg" width="293" height="156" fill="none" viewBox="0 0 293 156"><path fill="#221e1e" d="M39.608 74.552c.218-1.253.6-2.422 1.792-3.067 4.114-2.23 9.246-2.622 13.857-4.39C62.223 64.424 69.096 61.179 76 58.65a85.2 85.2 0 0 1 45.049-3.479c12.422 2.312 22.246 6.945 33.629 11.96 3.505.988 7.522 1.361 11.103 1.895 3.981.594 7.071 1.447 10.849 2.718 1.629.549 6.661 2.006 6.434 4.177-1.325.8-6.361-1.471-7.97-1.858-2.093-.718-4.453-.824-6.546-1.301-3.475-.885-10.576.321-13.599-.992-6.023-2.617-11.573-6.034-17.724-8.667-15.745-6.739-34.119-8.026-50.706-3.868-3.062.767-15.79 6.026-17.665 8.335l.013.346c4.557 2.129 10.319 1.065 14.366 3.145.996-.514 2.264-1.219 3.26-1.672 3.426-6.492 7.355-10.775 15.034-9.926 1.433.159 2.902 1.165 4.325 1.41 3.088-.229 14.949-2.606 16.579 1.029l-.022.52c-.453.377-11.074.983-13.809 1.905 1.245 3.477 1.471 4.866 1.21 8.69 6.581-3.956 16.227-7.172 23.743-5.293 9.55 2.388 8.281 11.478.655 15.485-1.921 1.01-5.441 2.516-7.814 2.053-5.482-2.493 7.017-7.063 4.751-10.806-1.659-2.74-6.719-.498-9.379.577-7.858 3.123-25.116 25.109-11.428 30.106 4.457 1.628 11.01-.889 14.8-1.587 1.196-.22 2.858 4.963-1.251 6.83-9.247 4.202-22.81 5.513-28.63-4.811-3.7-7.678.097-15.83 4.417-22.671-2.67.795-6.306.595-8.605 1.772-2.24 1.147-12.44 6.28-14.101 6.216-1.557.648-4.44 1.728-6.142 1.578-.748.078-2.169.551-2.556.4.828-1.22 11.055-5.678 12.904-6.742 2.769-1.593 6.56-3.545 9.06-5.603-2.68.281-5.614.655-8.21 2.195-6.066 3.6-12.904 6.735-18.285 11.316-.322.275-.296 2.247-.086 2.736 2.004.861 9.252-3.053 11.388-2.498 1.473.383 9.204 7.852 9.53 8.862-.903 1.123-4.9-.256-6.456-.412-3.408-.339-6.791-.714-10.22-.83-6.234-.379-20.776 1.934-26.244.61-1.727-.182-4.794-.481-6.369-1.001l-.486-.607.084-.451c2.735-.937 5.218-.351 8.007-.913-2.815 0-6.197.093-8.99-.197-1.746-.18-5.14-1.407-6.813-1.428.337-.722.745-.953 1.556-.811 5.456.95 9.951 1.591 15.593 1.161.664.027 2.659-.182 3.372-.243 1.224.115 3.345-.203 4.487-.684l-.101-.245c-.855-.2-10.993.134-12.513.189-3.705-.258-8.34-.367-11.24-2.9l-.355-.68.264-.534c2.092-.09 4.5.374 6.643.472 3.062.14 6.066-.058 9.115-.31l2.191-.344c.76.095 2.821-.384 3.683-.553.717-.067 1.389-.173 2.099-.282l.254-.567.224.24c-.854-.537-3.165-.27-4.092.08-1.458.333-4.27.373-4.866.559-3.153.264-13.874.01-15.113-3.472 3.082-.184 6.653.196 9.892.113l2.145-.135c2.784-.013 8.808-1.5 11.743-2.167l1.11-.41c1.679-1.026 11.637-4.324 13.994-5.339.431-.185 1.482.496 2.223.076 3.45-1.951 8.026-5.44 10.813-8.17-5.078-.744-30.104-.642-34.802.374-1.454.315-3.164.852-4.01 2.16.875.972 9.379-2.341 9.961.354-.524 1.209-1.96 2.119-3.035 2.892-3.8 3.999-5.833 4.657-11.176 5.489.496-2.494 1.11-3.925 2.07-6.238.971-1.96.061-1.439.395-3.427"/><path fill="#221e1e" d="M73.273 60.246c24.528-9.45 45.454-7.754 69.605 2.486 4.059 1.72 7.56 3.952 11.809 5.238 2.598.786 14.816 2 16.491 2.945l-.32.337c-.986-.19-2.407-.588-3.292-.257l-.182.19 3.115.506.049.275-.223.13c-2.439-.383-13.615-.791-14.731-1.29-6.607-2.959-13.516-6.981-20.677-9.514-20.494-7.249-40.842-7.252-60.602 2.044-.006.327-.785-2.017-.867-2.388.13-.169.184-.245.292-.428zm-25.949 9.617c6.893-1.68 11.491-3.714 18.062-6.404l2.386 1.32c.324 1.226-.618 1.436-.23 2.723l-.171.545c.874 1.067 12.763 2.21 14.778 3.131-.754 1.541-18.275-.013-21.03-.07a92 92 0 0 0-11.756.416c-1.537-.327-3.864-.126-5.394.349-.773.24-1.713 1.48-2.643 1.113 1.24-2.42 4.166-.675 5.998-3.123m11.602 26.94c.15 1.81.353 2.84.72 4.595-6.842.954-11.098 1.118-17.994 1.103-1.727-.182-4.795-.481-6.37-1.001l-.486-.607.084-.451c2.736-.936 5.219-.351 8.008-.912 4.843-.416 11.359-1.257 16.038-2.727M39.214 77.98c3.315-1.944 8.854-2.07 12.558-3.133-.77.852-2.856 3.06-3.452 3.882-3.8 3.999-5.834 4.656-11.177 5.489.496-2.494 1.11-3.925 2.071-6.238M49.59 93.01c1.698.665 2.39-.21 3.776-.036.89.112 1.888 1.057 3.189 1.238-1.124.364-5.258 1.097-5.707 1.479l-.038.265c-4.835 1.033-10.899.753-15.777.242-.56-.706-3.035-1.094-4.265-1.488-.231.135 7.932-.257 9.113-.435 3.785-.102 6.747-1.131 9.709-1.265m-9.267-4.052c2.785-.013 8.808-1.5 11.743-2.167 1.494.883.58 1.515 1.712 3.044.054.072.09.189.117.276-4.7 1.128-10.322 2.07-15.173 1.636l-.079-.353c-.536-.38-1.773-.205-2.497-.172l.998-.419c-.343-.404-.837-.321-1.489-.393.987-1.395 2.136.14 4.668-1.453"/><path fill="#221e1e" d="M62.548 83.295c1.359.2 3.137-.916 3.158-.003-4.83 4.002-5.563 5.12-11.812 6.82a1 1 0 0 0-.116-.276c-1.134-1.53-.219-2.162-1.713-3.045l1.11-.41c2.006-.317 7.149-2.309 9.373-3.086M90.8 81.023l2.288 1.481c-4.944 2.751-9.393 4.946-14.484 7.409-.953-.431-1.147-.213-2.096.061l-.022.31-.243-.157.112-.384.089.284c.797-.741 1.27-.808 1.891-1.852q6.305-3.45 12.464-7.153M73.273 60.246l.467.274c-.108.183-.161.26-.292.428.082.371.861 2.715.867 2.388-2.272 1.294-4.745 3.047-6.773 4.165-.388-1.286.555-1.497.23-2.724l-2.386-1.319q3.925-1.65 7.887-3.212M28.286 88.98c3.081-.184 6.652.197 9.891.114l2.145-.135c-2.532 1.591-3.681.057-4.668 1.452.652.072 1.145-.01 1.49.393l-.999.419c.724-.033 1.96-.209 2.497.172l.079.353c-2.298.117-4.8-.425-7.037-.922-1.32-.479-2.332-.936-3.398-1.845"/><path fill="#221e1e" d="M28.286 88.98c3.081-.184 6.652.197 9.891.114-1.632 1.284-4.331-.83-6.493 1.732-1.32-.479-2.332-.936-3.398-1.845m142.039-16.884.223-.131-.049-.274-3.115-.507.182-.19c.885-.331 2.306.068 3.292.258l.32-.338c4.853 1.022 7.881 2.1 12.058 4.875-.046-.006-12.761-3.62-12.911-3.693M49.588 93.011l5.09-1.17c1.274.83 2.026 1.374 3.49 1.872l.277-.178-.061.79c-1.057.896-6.126 1.607-7.575 1.632l.038-.265c.449-.382 4.582-1.115 5.706-1.48-1.3-.18-2.3-1.126-3.188-1.237-1.387-.174-2.078.7-3.777.036m-9.98-18.459c2.223-3.942 3.347-3.866 7.716-4.69-1.832 2.449-4.759.703-5.999 3.123.931.367 1.87-.873 2.644-1.113 1.53-.474 3.857-.676 5.394-.349-1.946.41-4.038.787-5.917 1.452-1.209.428-2.696 2.099-3.602 1.969zm-11.37 19.82-.355-.68.264-.534c2.888.889 8.642 1.114 11.733 1.117-1.182.179-9.345.57-9.113.435 1.23.394 3.704.782 4.265 1.489-2.299-.195-4.629-1.066-6.795-1.828m50.098-6.196c-.62 1.044-1.094 1.11-1.891 1.852l-.09-.284-.11.383.242.157.022-.31c.95-.273 1.143-.491 2.096-.06-.417.217-1.436.66-1.636.977-1.557.647-4.44 1.727-6.142 1.577l.043-.236c1.623-1.112 5.63-3.144 7.466-4.056"/><path fill="#221e1e" d="M54.678 91.842c1.18-.38 2.628-1.067 3.694-.804.43.932.193 1.336.074 2.497l-.277.178c-1.465-.498-2.217-1.041-3.491-1.871m7.869-8.547c2.007-1.013 3.953-1.713 6.053-2.508-.849.829-1.89 1.935-2.895 2.505-.02-.913-1.798.203-3.158.003m39.361-1.735c6.881-2.305 5.273-4.947 9.203-7.898 6.518-4.338 16.658-7.725 24.241-4.564 1.361.568 3.343 2.49 3.629 3.93 1.644 8.274-7.784 11.03-13.77 10.974.826-.814 2.599-2.595 3.449-3.184 3.122-2.165 6.206-9.202-.347-8.618-10.625.947-20.799 12.935-23.28 22.636-.454 2.182-.606 4.35.128 6.495-3.773 4.075-7.48.751-10.425 1.198.128-3.228-.89-3.387.215-8.207 1.303-5.228 3.364-8.706 6.957-12.763"/><path fill="#221e1e" d="m94.951 94.322.474.38a6.4 6.4 0 0 0-.068 1.052c4.25.734 7.906-1.645 9.676-.917-.454 2.181-.606 4.35.128 6.494-3.773 4.075-7.48.751-10.425 1.198.128-3.227-.89-3.386.215-8.207m-.661-32.977c3.035-1.883 6.066-1.663 9.298-.542.905.345 1.099.427 1.872 1.028l1.577 1.55 1.488 2.079c.612 2.013 1.222 4.345.573 6.444-.654 1.689-2.415 5.233-3.881 6.247-.631.085-.977-.006-1.271-.675-.259.064-.967.207-1.148.34-.711.658-.878.81-1.835 1.1.737.546.911.733.673 1.59-1.039.926-2.39.97-3.723 1.049-5.98.351-9.936-4.883-9.963-10.658-.228-2.242-.362-2.616.764-4.515.883-1.334 2.043-2.344 3.254-3.358.195-.264.971-1.002 1.243-1.273.119-.02.916-.342 1.08-.406"/><path fill="#221e1e" d="M93.212 61.75c.118-.02.915-.342 1.078-.405l.427 1.163c.067 1.33.226 1.865.58 3.159l-.97-.026c.615 1.583 1.755 4.22 2.73 5.606.419.731 1.466 2.282 1.41 2.993l-.327.61c.938.04 1.261.357 2.006.9.954.99 1.358 1.572 2.652 2.066-.711.658-.878.81-1.835 1.1.737.546.911.733.673 1.589-1.039.927-2.39.971-3.723 1.05-5.98.35-9.936-4.883-9.963-10.658-.228-2.242-.362-2.616.764-4.515.883-1.335 2.043-2.344 3.254-3.359.195-.264.971-1.002 1.243-1.272"/><path fill="#221e1e" d="M93.212 61.75c.118-.02.915-.342 1.078-.405l.427 1.163c.067 1.33.226 1.865.58 3.159l-.97-.026c.615 1.583 1.755 4.22 2.73 5.606.419.731 1.466 2.282 1.41 2.993l-.327.61c-1.784-.35-3.654-3.326-4.609-4.825-1.969 1.367-3.232 1.182-5.581.872-.228-2.242-.362-2.616.764-4.515.883-1.335 2.043-2.344 3.254-3.359.195-.264.971-1.002 1.243-1.272"/><path fill="#221e1e" d="M87.95 70.897c-.228-2.242-.362-2.616.764-4.515.615.342 3.342 1.508 3.985 1.646.155.367.749 1.696.832 1.997-1.969 1.367-3.232 1.182-5.581.872"/><path fill="#221e1e" d="M91.967 63.023c.183 1.847.294 3.19.731 5.005-.643-.138-3.37-1.304-3.985-1.646.884-1.335 2.044-2.344 3.254-3.359m1.244-1.272c.118-.021.916-.343 1.079-.406l.427 1.163c.067 1.33.226 1.865.58 3.159l-.971-.026c-.795-1.591-.26-2.782-1.115-3.89M98.14 74.85c.938.04 1.26.357 2.006.9.954.99 1.358 1.572 2.652 2.067-.711.657-.878.81-1.835 1.1-1.016-.636-3.795-2.112-3.964-3.292.324-.652.248-.46 1.14-.774"/><path fill="#221e1e" d="M99.431 70.476c3.399.628 5.629-1.34 9.667 1.428-.654 1.69-2.415 5.233-3.881 6.248-.631.084-.977-.007-1.271-.676-.259.064-.967.207-1.148.341-1.294-.495-1.698-1.076-2.652-2.066-.745-.543-1.068-.86-2.007-.9l.327-.61c.057-.711-.99-2.262-1.408-2.994.682-.458 1.563-.59 2.373-.771"/><path fill="#221e1e" d="M100.146 75.75c1.955-1.19 2.535.165 3.8 1.726-.259.064-.967.207-1.148.34-1.294-.494-1.698-1.075-2.652-2.065M94.29 61.345c3.035-1.883 6.066-1.663 9.298-.542.905.345 1.099.427 1.872 1.028l1.577 1.55c-.891.662-7.541 2.296-9.497 3.196-.904-.001-1.556-.299-2.243-.91-.354-1.294-.513-1.829-.58-3.159z"/><path fill="#221e1e" d="M94.29 61.345c3.035-1.883 6.066-1.663 9.298-.542-.383.53-.602.909-1.154 1.257-2.399.32-1.498-.318-3.141-.448-1.32-.105-2.849 1.568-4.576.896z"/><path fill="#221e1e" d="M103.588 60.803c.905.345 1.099.427 1.872 1.029-.671.543-.945.849-1.822.877-.525-.2-.786-.267-1.204-.649.552-.348.771-.726 1.154-1.257m4.937 4.657c.612 2.013 1.222 4.345.573 6.444-4.038-2.769-6.268-.8-9.667-1.428 2.04-.397 3.941-1.83 5.916-2.814.961-1.318 1.983.081 3.178-2.202"/><path fill="#221e1e" d="M105.347 67.662q.853-.155 1.714-.26c.054.54.066.354-.286.88-.596.204-1.515.617-2.077.46.06-.601.16-.528.649-1.08M69.512 82.053A1092 1092 0 0 0 86.155 69.86c-.002 1.29.11 2.425.228 3.703.65 1.719 1.143 2.951 2.166 4.529-6.173 3.016-12.517 6.94-18.44 10.45-2.628 1.56-5.489 3.704-8.1 5.156-1.282-.784-1.3-2.32-1.555-3.733 1.33-1.374 7.533-6.94 9.058-7.91"/><path fill="#221e1e" d="M69.512 82.053A1092 1092 0 0 0 86.155 69.86c-.002 1.29.11 2.425.228 3.703l-.656.42c-.576-.14-.686-.19-1.208-.474-.366.309-.432.352-.579.803-2.943 1.682-7.303 4.693-9.954 6.806-1.253.455-4.952 2.554-5.861 3.43.843-2.006 1.064-.741 1.387-2.494"/><path fill="#221e1e" d="M83.94 74.312c-.082 1.054-.413 1.568-1.229 2.219-1.438 1.148-6.85 4.942-8.324 5.258-.393-.362-.296-.182-.4-.672 2.65-2.112 7.01-5.124 9.954-6.806m21.22 27.02 1.24 2.198c2.383 2.32 4.525 3.304 7.956 3.261a18.4 18.4 0 0 0 4.449-.65c2.036-.557 4.867-2.311 6.352-1.599 1.361 2.786-1.1 4.522-3.318 5.532-8.509 3.873-22.142 4.051-26.481-6.045l-.623-1.499c2.944-.447 6.652 2.877 10.425-1.198"/><path fill="#221e1e" d="m105.161 101.331 1.24 2.198c-2.483-.475-3.404 1.186-6.214 1.247-2.103.045-2.858-.801-4.828-.748l-.623-1.499c2.944-.447 6.652 2.877 10.425-1.198m-30.676-6.775c1.43.025 8.788 7.622 10.334 9.177-4.456-1.204-7.434-1.453-12.01-1.941-3.797-.227-7.526-.477-11.332-.506l.952-2.723c3.13-1.336 8.323-2.505 12.056-4.007m34.41-33.668c5.036-.494 9.077-.072 14.008.79-1.938.303-3.2.295-5.152.311-3.535.103-5.905.178-9.165 1.752-.472-.564-1.552-1.682-1.581-2.33.66-.588.876-.43 1.89-.523M229.414 87.48c1.378 2.08 5.664 8.123 8.352 8.175.386-.457-.074-.727-.231-1.356-2.022-8.112 3.329-14.638 9.765-18.777 1.253-.805 2.447-1.014 3.651-1.89-.129-.437-.506-.504-.738-1.285.275-.994 3.105-4.685 3.916-5.935 1.708-2.631 3.02-5.418 4.789-7.977.247-.358.328-.268.857-.356 1.363.372 5.395 2.896 6.134 4.01.511 2.475-4.009 5.765-5.711 7.247-2.046 1.78-5.038 2.973-7.523 3.987 2.979.012 4.239.316 6.996 1.452 4.941 5.542-2.963 12.353-8.097 13.54-1.463.338-4.176.948-5.403 1.631-.261.652-.23.392.038 1.145 3.907 3.95 12.96-4.492 16.06-6.763.525-.384.899-.275 1.474-.207 3.25 4.942-13.179 14.173-17.219 14.473-1.533.113-4.742-.6-5.811-.086-.08.605-.113.825-.303 1.403-.965 1.005-1.663 1.277-2.922 1.893 2.026.599 5.529 1.189 4.86 3.92-.701.539-1.692.549-2.575.476-25.956-2.132-52.255-.526-77.704 5.124-10.287 2.284-21.333 5.085-31.208 9.06-1.688-.262-9.308-1.559-8.989-3.72 1.174-1.318 3.567-1.56 5.236-2.189 15.08-5.689 30.772-8.637 46.68-10.808 2.563-.35 15.623-1.193 16.573-1.689-.268-.7-3.701-1.512-5.352-4.569-2.12-3.541-2.286-7.263-1.299-11.305 2.769-11.336 15.423-23.417 27.783-20.9 6.287 1.282 7.965 8.586 6.597 14.077-.291.564-1.188 4.322-1.635 5.582l-.787 1.96c-3.827 7.344-8.204 11.548-15.725 14.77 5.49-.131 10.633.015 16.284-.158-1.356-1.05-2.129-1.47-2.336-3.27-.346-3.022 1.226-7.513 2.181-10.426l.811-2.306c.262-1.303 1.634-4.089 1.588-5.086 1.156-4.222 3.302-8.694 4.829-12.82.765-1.794 2.277-5.542 4.238-6.249 2.586-1.037 9.046-.288 7.267 3.952-2.436 5.801-5.849 11.111-8.432 16.918 3.021-1.341 12.17-11.093 14.594-6.363 2.153 4.203-8.503 9.656-11.553 11.694m-34.651 8.911c4.784.338 6.769-1.437 9.888-4.914l1.261-1.66c.83-1.224 1.686-2.915 2.405-4.243 1.492-3.92 4.039-14.184-2.715-14.46-.898-.036-1.594-.16-2.47-.334-6.421 3.813-9.974 11.394-10.8 18.59.06 1.286.108 2.177.316 3.443.374 1.502 1.135 2.434 2.115 3.578m51.315-9.994c1.976.345 5.942-2.86 7.354-4.231.802-1.272 2.182-2.973 1.511-4.515-2.206-1.003-6.864 4.707-7.664 6.618zM228.27 101.94l4.453.089c-3.45-1.607-5.492-3.64-7.764-6.656-.55-.73-1.483-2.447-2.25-2.762-1.05 3.27-1.696 6.249-4.011 8.788l.192.269c2.63.367 6.643.32 9.38.272"/><path fill="#221e1e" d="M184.099 88.314c1.438-8.782 8.858-18.39 17.212-21.286 17.221-5.972 18.845 8 13.423 19.9-.644-.331-1.442-.264-2.15-.294-1.508-.066-2.862-.524-4.267-1.06 1.492-3.92 4.039-14.184-2.715-14.46-.898-.036-1.594-.16-2.47-.334-6.421 3.813-9.974 11.394-10.8 18.59.06 1.286.108 2.176.316 3.443-1.365.962-6.099.329-8.278 1.11-.438-2.098-.52-3.475-.271-5.609"/><path fill="#221e1e" d="M184.099 88.315c.994 1.54 6.312 1.028 8.233 1.055.06 1.286.108 2.177.316 3.443-1.365.962-6.099.329-8.278 1.11-.438-2.098-.52-3.475-.271-5.609m-62.579 28.782a259.2 259.2 0 0 1 92.974-14.341c6.382-.204 22.99.684 28.973 2.523-3.705.401-7.541-.095-11.263-.245-5.293-.215-10.667-.524-15.958-.529-5.054-.067-10.021.428-15.026.64-21.214.897-42.214 4.417-62.262 11.523-2.884 1.022-5.722 2.212-8.636 3.165-2.745-.669-6.025-1.864-8.802-2.736"/><path fill="#221e1e" d="M214.494 102.755c6.382-.204 22.99.684 28.973 2.523-3.705.401-7.541-.095-11.263-.245-5.293-.215-10.667-.524-15.958-.529 3.224-.525 5.46-.124 7.731-.524-.57-.538-8.08-1.074-9.483-1.225m25.919-19.51a18.2 18.2 0 0 1 10.835-8.289c10.293-2.735 11.457 5.417 5.255 9.423-3.793 3.47-11.223 4.15-11.618 4.586-1.066-.599-4.718.084-6.834-.383l.719-2.124c.563-1.37.87-1.946 1.643-3.213m5.665 3.152c1.976.344 5.942-2.86 7.354-4.232.802-1.272 2.182-2.972 1.511-4.514-2.206-1.003-6.864 4.706-7.664 6.618z"/><path fill="#221e1e" d="m253.432 82.166.046.764c-.775.836-1.169 1.179-1.533 2.27l.108.41c1.985.8 2.607-1.45 4.45-1.23-3.793 3.47-11.223 4.15-11.618 4.585-1.066-.598-4.718.085-6.834-.382l.719-2.124c1.85.467 5.555.556 7.308-.062 1.976.345 5.942-2.86 7.354-4.231"/><path fill="#221e1e" d="m240.413 83.246-.149 1.301c1.166.982 3.927-1.653 7.015-.278l-1.201 2.128c-1.753.618-5.458.529-7.308.062.563-1.37.87-1.946 1.643-3.213m-23.1 2.511c2.547-7.383 5.083-15.325 8.887-22.147 1.833-3.286 6.163-1.59 8.498.067-1.477 2.83-10.148 18.9-9.859 20.839l-.374.645c1.761.828 1.984.155 3.801 1.459l-.687.207c-3.906-.503-5.695 1.032-9.177.335-.611-.122-.881-.903-1.089-1.405"/><path fill="#221e1e" d="M217.313 85.757c.208.502.478 1.283 1.089 1.405 3.482.696 5.271-.839 9.177-.335 2.904 4.946 6.804 8.339 11.614 11.153.497.29.51.795.46 1.29-.409.505-.595.578-1.129.876-6.725 3.746-13.024-4.32-15.666-9.789l-.309.038-.325.603-.482-.468c-1.294.338-4.5.634-5.786.174zm-22.55 10.635c4.784.337 6.769-1.438 9.888-4.914 1.354 2.562 2.571 1.567 3.696 3.615-6.598 6.369-20.623 10.222-23.977-1.17 2.179-.78 6.913-.148 8.278-1.11.374 1.502 1.135 2.435 2.115 3.579m42.998-4.233c-.031-1.55.013-2.05.29-3.577 2.116.467 5.768-.216 6.834.383.18 1.25.223 1.799.739 2.944 3.036 3.636 9.416-.81 12.214-2.749l.693.185.129-.174.117.452.501-.309-.26.026.268-.121.197.17-.407.217-.048-.208.458.259-.53.135c.101.239.194.503.355.702-4.468 4.931-19.414 12.075-21.55 1.665"/><path fill="#221e1e" d="M237.761 92.159c-.031-1.55.013-2.05.29-3.577 2.116.467 5.768-.216 6.834.383.18 1.25.223 1.799.739 2.944-4.233 1.336-5.87-.02-7.863.25m21.366-33.614c.517.204 5.725 3.529 6.53 4.031-3.017 3.778-5.553 6.157-9.799 8.464-2.027.844-3.542 1.18-5.675 1.702 3.709-4.391 6.422-9.062 8.944-14.197m-34.288 25.971c1.571-1.194 12.427-10.03 13.649-9.29 6.366 3.861-7.699 9.701-10.222 11.395-1.817-1.305-2.04-.631-3.801-1.459zm-8.883 6.189c1.286.46 4.492.164 5.786-.175l.482.468c-.342 1.017-.675 2.047-1.06 3.047-.6 1.885-2.005 6.803-4.561 6.234-2.626-.583-1.655-5.142-1.284-6.73z"/><path fill="#221e1e" d="M215.956 90.705c1.286.46 4.492.164 5.786-.175l.482.468c-.342 1.017-.675 2.047-1.06 3.047-.039-.674-.082-.746-.504-1.278-1.875-.608-2.207 1.962-5.341.783zm-7.639-5.131c1.405.536 2.759.994 4.267 1.06.708.03 1.506-.037 2.15.295-1.064 1.673-1.951 3.103-3.19 4.658-1.203 1.542-1.792 2.162-3.197 3.505-1.125-2.047-2.342-1.053-3.696-3.615l1.261-1.66c.83-1.225 1.686-2.915 2.405-4.243"/><path fill="#221e1e" d="M205.912 89.818c2.497 1.793 3.459.447 5.632 1.769-1.203 1.542-1.792 2.162-3.197 3.505-1.125-2.047-2.342-1.053-3.696-3.615zm51.926-.657c1.263-1.181 3.848-3.893 5.479-4.188l.217.406c-.732 1.745-2.728 3.918-4.223 5.115-.161-.2-.254-.463-.355-.702l.53-.135-.458-.26.048.209.407-.216-.197-.171-.268.122.26-.026-.501.308-.117-.452-.129.174zm-87.963-10.125c7.556-.862 3.477 5.376 1.399 8.551 2.76.006 8.858-1.177 10.434.73.269 1.411-.618 2.55-1.346 3.798-2.744.623-9.018 1.43-11.946.938-1.272-.214.327-3.263.714-4.051l-2.901-.977c-6.984 3.51-6.541 10.356-9.203 16.277-.772.097-4.153.045-4.475.157-5.611 1.943-7.591 3.877-10.38-2.648-4.155 4.297-5.611 7.024-12.353 5.035-2.531-1.814-3.222-5.008-2.74-7.984 1.506-9.425 11.337-18.194 21.11-16.97 2.212.277 4.243 1.653 4.081 4.13-.258 3.936-1.899 7.206-2.997 10.905-.239.805-.097 1.449.349 2.115 3.69-.433 3.938-28.24 13.899-15.583 2.389-1.52 3.193-3.222 6.355-4.423m-33.243 21.089c2.407-1.615 6.805-8.876 8.04-11.603l-.179-.333-.853.007c-2.946 1.609-9.77 7.84-7.988 11.438.376.302.485.427.98.491"/><path fill="#221e1e" d="M140.827 96.758c1.55-2.698 5.005-10.923 9.005-8.454.246.152.934.5.943.796-.159 2.987-2.26 5.078-2.342 8.4.058 1.55-.076 3.26 1.953 3.184 1.161-.714 1.175-1.106 1.484-2.407q.108-.456.208-.914c1.556-.042 4.59-.295 5.921.303-1.079 4.169-.934 7.644-6.257 4.973-4.82 4.074-8.593 3.058-9.219-3.526-1.758 2.996-4.101 6.413-7.66 7.236-5.385 1.245-7.732-2.793-7.036-7.547.435-1.992.975-3.598 1.887-5.415 2.366 2.228 3.616.494 6.161 1.372-.478 1.137-1.016 2.336-1.34 3.519.122 1.41.312 2.552 1.867 2.781 1.737-.457 3.411-2.887 4.425-4.301"/><path fill="#221e1e" d="M140.827 96.758c1.55-2.698 5.005-10.923 9.005-8.454.246.152.934.5.943.796-.159 2.987-2.26 5.078-2.342 8.4a8 8 0 0 1-.429.075c-2.387.34-5.284.608-7.177-.817m-11.113-3.371c2.366 2.228 3.616.494 6.161 1.372-.478 1.137-1.016 2.336-1.34 3.519-.041.198-.161 1.041-.292 1.096-1.468.617-4.725.523-6.159-.093l-.257-.479c.435-1.992.975-3.598 1.887-5.415m31.373-5.397c2.164-2.631 7.831-10.5 11.861-7.551 2.068 1.513-3.01 6.732-4.185 7.965-.617-.561-1.601-1.502-2.247-1.955-2.958 1.547-5.12 3.825-6.77 6.715-.855 1.806-1.182 2.573-1.747 4.502-1.331-.597-4.365-.345-5.921-.303l1.743-5.795c1.078-3.425 2.274-12.853 6.985-9.867 2.816 1.786 1.001 4 .281 6.289"/><path fill="#221e1e" d="m152.078 97.363 1.743-5.795c1.726.48 4.483.761 5.925 1.597-.855 1.806-1.182 2.572-1.747 4.501-1.331-.597-4.365-.345-5.921-.303m-22.364-3.977c2.578-4.666 6.751-8.479 11.951-9.945 2.748-.776 7.878-1.644 9.744 1.244.1.884.178.562-.275 1.313-1.47.807-3.772.251-5.261.449-4.207.557-8.028 4.969-9.998 8.312-2.545-.879-3.795.855-6.161-1.373m50.998-5.254c.389-.046.239-.062.632.204-.104.963-.994 2.26-1.517 3.14-3.429.009-7.306.46-10.729.855l-.162.044-.291-.24c.332-1.021 1.438-2.426 2.098-3.35zm57.093-43.544c1.356.359 1.785 4.12 2.783 5.04 1.07.985 4.302 1.217 5.082 2.523-.548 1.784-3.776 1.54-5.147 3.192-1.159 1.396-.939 3.596-1.986 4.758-1.78-1.661-1.465-3.74-2.968-5.415-1.331-1.484-5.398.294-5.338-2.892.666-1.03 3.092-.802 5.087-1.492 1.801-2.332 1.137-3.892 2.487-5.714"/><path fill="#221e1e" d="M238.09 45.706c.394.36 1.474 4.014 1.927 4.544.947 1.106 4.184 1.44 5.598 1.639-5.086 1.037-6.342 1.624-7.38 6.947-.881-1.77-.596-2.731-1.986-4.548-1.457-1.903-3.765-2-6.025-2.321 5.447-.576 6.283-.925 7.866-6.26m-15.505-10.842c2.916 2-2.138 6.153 9.138 7.835-5.691 1.067-7.704 1.412-8.584 7.715-.904-.447-1.704-4.853-2.677-5.575-1.186-.88-3.609-1.382-5.091-2.232 5.217-.46 6.38-3.17 7.214-7.743M211.864 47.91c.781.587 1.189 2.853 1.733 3.647.805 1.176 3.961 1.643 5.347 1.91-4.21.711-5.235.176-6.507 4.715l-.181.325-.334-.097c-1.188-3.762-1.995-3.91-5.623-5.09 3.966-1.032 4.459-1.43 5.565-5.41M27.084 97.904c1.674.022 5.067 1.248 6.813 1.429 2.793.29 6.175.197 8.99.196-2.788.562-5.272-.024-8.007.913l-.084.451.486.607c-2.784-.278-6.052-1.8-8.198-3.596m12.395-.633c1.52-.055 11.657-.39 12.512-.19l.101.246c-1.142.481-3.263.799-4.487.684.159-.168.138-.17.17-.403-1.075-.32-2.803-.16-3.976-.114-1.503.001-2.83.043-4.32-.223m176.976-12.407c.447-1.26 1.344-5.018 1.635-5.583l.381 1.066c.046.997-1.326 3.783-1.588 5.086zm-168.191 7.03c.584.113 1.06.15 1.515.528-.862.17-2.923.649-3.683.553-.963-.536-1.178-.484-2.257-.406l-.44-.117c.594-.185 3.407-.225 4.865-.558"/><path fill="#221e1e" d="M43.799 97.495c1.173-.046 2.9-.206 3.976.113-.032.233-.011.235-.17.403-.713.062-2.707.27-3.372.244-.085-.446-.13-.391-.434-.76m4.465-5.601c.928-.35 3.238-.617 4.092-.08l-.223-.24-.255.567c-.71.108-1.382.214-2.099.281-.456-.379-.93-.415-1.515-.528m168.191-7.031.428.57-.811 2.305-.404-.915zM43.839 92.569c1.079-.078 1.294-.13 2.257.406l-2.19.346z"/></svg>